<?xml version="1.0" encoding="UTF-8" standalone="no"?>
<svg
   xmlns:dc="http://purl.org/dc/elements/1.1/"
   xmlns:cc="http://creativecommons.org/ns#"
   xmlns:rdf="http://www.w3.org/1999/02/22-rdf-syntax-ns#"
   xmlns:svg="http://www.w3.org/2000/svg"
   xmlns="http://www.w3.org/2000/svg"
   xmlns:sodipodi="http://sodipodi.sourceforge.net/DTD/sodipodi-0.dtd"
   xmlns:inkscape="http://www.inkscape.org/namespaces/inkscape"
   role="img"
   viewBox="0 0 24 24"
   version="1.1"
   id="svg64"
   sodipodi:docname="bootstrap.svg"
   inkscape:version="0.92.4 5da689c313, 2019-01-14">
  <metadata
     id="metadata70">
    <rdf:RDF>
      <cc:Work
         rdf:about="">
        <dc:format>image/svg+xml</dc:format>
        <dc:type
           rdf:resource="http://purl.org/dc/dcmitype/StillImage" />
      </cc:Work>
    </rdf:RDF>
  </metadata>
  <defs
     id="defs68" />
  <sodipodi:namedview
     pagecolor="#ffffff"
     bordercolor="#666666"
     borderopacity="1"
     objecttolerance="10"
     gridtolerance="10"
     guidetolerance="10"
     inkscape:pageopacity="0"
     inkscape:pageshadow="2"
     inkscape:window-width="1366"
     inkscape:window-height="712"
     id="namedview66"
     showgrid="false"
     inkscape:zoom="7.7339804"
     inkscape:cx="-3.3334062"
     inkscape:cy="-3.5624587"
     inkscape:window-x="0"
     inkscape:window-y="28"
     inkscape:window-maximized="1"
     inkscape:current-layer="svg64" />
  <title
     id="title60">Bootstrap icon</title>
  <path
     d="M20 0H4C1.793.006.006 1.793 0 4v16c0 2.2 1.8 4 4 4h16c2.2 0 4-1.8 4-4V4c0-2.2-1.8-4-4-4zm-2.187 16.855c-.2.482-.517.907-.923 1.234-.42.34-.952.62-1.607.82-.654.203-1.432.305-2.333.305H6.518v-14h6.802c1.258 0 2.266.283 3.02.86.76.58 1.138 1.444 1.138 2.61 0 .705-.172 1.31-.518 1.81-.344.497-.84.886-1.48 1.156v.046c.854.18 1.515.585 1.95 1.215s.658 1.426.658 2.387c0 .538-.104 1.05-.3 1.528l.025.027zm-2.776-3.45c-.41-.375-.986-.558-1.73-.558H8.985v4.368h4.334c.74 0 1.32-.192 1.73-.58.41-.385.62-.934.62-1.64-.007-.69-.21-1.224-.62-1.59h-.017zm-.6-2.823c.396-.336.59-.817.59-1.444 0-.704-.175-1.204-.53-1.49-.352-.285-.86-.433-1.528-.433h-4v3.863h4c.583 0 1.08-.17 1.464-.496z"
     id="path62" />
  <path
     style="fill:#563d7c;fill-opacity:0;stroke:none;stroke-width:0.12929952;stroke-opacity:1"
     d="M 2.8599305,23.762626 C 1.6819609,23.3934 0.69605985,22.422884 0.26881602,21.211946 -0.01852028,20.397548 -0.01123032,3.7379302 0.27688689,2.7677343 0.53791751,1.8887489 1.521504,0.80812572 2.4372172,0.39427454 L 3.1186401,0.08630949 h 8.8597359 8.859736 l 0.86207,0.42439543 c 0.972631,0.47882461 1.415565,0.93734058 1.900775,1.96764578 l 0.334907,0.7111474 v 8.6630679 c 0,6.792657 -0.03683,8.788693 -0.170575,9.244916 -0.226116,0.771306 -0.746538,1.513632 -1.422737,2.029387 -1.079815,0.823602 -0.983014,0.816111 -10.422687,0.806553 -6.4670667,-0.0065 -8.6683138,-0.04805 -9.0599345,-0.170796 z m 11.5724185,-4.60918 c 1.106432,-0.173631 2.333997,-0.780755 2.888524,-1.428594 0.555327,-0.648776 0.800756,-1.477843 0.781551,-2.640113 -0.02559,-1.548655 -0.75057,-2.749993 -1.966038,-3.257848 l -0.448213,-0.187275 0.384468,-0.233809 C 16.650235,11.05455 17.236744,10.274028 17.394818,9.6462624 17.853763,7.8236253 17.162244,6.3055744 15.531395,5.5555954 14.905044,5.2675556 14.752934,5.257079 10.650337,5.2194148 L 6.415778,5.1805391 v 7.0533749 7.053375 l 3.588062,-0.001 c 1.973434,-5.18e-4 3.966263,-0.06033 4.428509,-0.132867 z"
     id="path986"
     inkscape:connector-curvature="0" />
  <path
     style="fill:#563d7c;fill-opacity:1;stroke:none;stroke-width:0.12929952;stroke-opacity:1"
     d="M 2.8599305,23.762626 C 1.6819609,23.3934 0.69605985,22.422884 0.26881602,21.211946 -0.01852028,20.397548 -0.01123032,3.7379302 0.27688689,2.7677343 0.53791751,1.8887489 1.521504,0.80812572 2.4372172,0.39427454 L 3.1186401,0.08630949 h 8.8597359 8.859736 l 0.86207,0.42439543 c 0.972631,0.47882461 1.415565,0.93734058 1.900775,1.96764578 l 0.334907,0.7111474 v 8.6630679 c 0,6.792657 -0.03683,8.788693 -0.170575,9.244916 -0.226116,0.771306 -0.746538,1.513632 -1.422737,2.029387 -1.079815,0.823602 -0.983014,0.816111 -10.422687,0.806553 -6.4670667,-0.0065 -8.6683138,-0.04805 -9.0599345,-0.170796 z m 11.5724185,-4.60918 c 1.106432,-0.173631 2.333997,-0.780755 2.888524,-1.428594 0.555327,-0.648776 0.800756,-1.477843 0.781551,-2.640113 -0.02559,-1.548655 -0.75057,-2.749993 -1.966038,-3.257848 l -0.448213,-0.187275 0.384468,-0.233809 C 16.650235,11.05455 17.236744,10.274028 17.394818,9.6462624 17.853763,7.8236253 17.162244,6.3055744 15.531395,5.5555954 14.905044,5.2675556 14.752934,5.257079 10.650337,5.2194148 L 6.415778,5.1805391 v 7.0533749 7.053375 l 3.588062,-0.001 c 1.973434,-5.18e-4 3.966263,-0.06033 4.428509,-0.132867 z"
     id="path988"
     inkscape:connector-curvature="0" />
  <path
     style="fill:#563d7c;fill-opacity:1;stroke:none;stroke-width:0.12929952;stroke-opacity:1"
     d="m 9.0017685,15.100151 v -2.148539 l 2.5536655,2.01e-4 c 2.810302,2.21e-4 3.16628,0.07869 3.70817,0.817403 0.384933,0.524745 0.382412,1.983552 -0.0043,2.502378 -0.592624,0.795033 -0.898527,0.871625 -3.701553,0.926792 l -2.5559575,0.05031 z"
     id="path990"
     inkscape:connector-curvature="0" />
  <path
     style="fill:#563d7c;fill-opacity:1;stroke:none;stroke-width:0.12929952;stroke-opacity:1"
     d="M 9.0017685,9.1372763 V 7.2624332 l 2.1657675,7.214e-4 c 1.191171,3.97e-4 2.373734,0.058493 2.627916,0.1291029 0.708959,0.1969434 1.057944,0.6519669 1.125581,1.4675863 0.0788,0.9502565 -0.211801,1.5405652 -0.929426,1.8879612 -0.484998,0.234783 -0.794251,0.264314 -2.76792,0.264314 H 9.0017685 Z"
     id="path992"
     inkscape:connector-curvature="0" />
</svg>
