<?xml version="1.0" encoding="UTF-8" standalone="no"?>
<svg
   xmlns:dc="http://purl.org/dc/elements/1.1/"
   xmlns:cc="http://creativecommons.org/ns#"
   xmlns:rdf="http://www.w3.org/1999/02/22-rdf-syntax-ns#"
   xmlns:svg="http://www.w3.org/2000/svg"
   xmlns="http://www.w3.org/2000/svg"
   xmlns:sodipodi="http://sodipodi.sourceforge.net/DTD/sodipodi-0.dtd"
   xmlns:inkscape="http://www.inkscape.org/namespaces/inkscape"
   role="img"
   viewBox="0 0 24 24"
   version="1.1"
   id="svg1650"
   sodipodi:docname="css3.svg"
   inkscape:version="0.92.4 5da689c313, 2019-01-14">
  <metadata
     id="metadata1656">
    <rdf:RDF>
      <cc:Work
         rdf:about="">
        <dc:format>image/svg+xml</dc:format>
        <dc:type
           rdf:resource="http://purl.org/dc/dcmitype/StillImage" />
      </cc:Work>
    </rdf:RDF>
  </metadata>
  <defs
     id="defs1654" />
  <sodipodi:namedview
     pagecolor="#ffffff"
     bordercolor="#666666"
     borderopacity="1"
     objecttolerance="10"
     gridtolerance="10"
     guidetolerance="10"
     inkscape:pageopacity="0"
     inkscape:pageshadow="2"
     inkscape:window-width="1366"
     inkscape:window-height="712"
     id="namedview1652"
     showgrid="false"
     inkscape:zoom="21.875"
     inkscape:cx="4.4114286"
     inkscape:cy="12"
     inkscape:window-x="0"
     inkscape:window-y="28"
     inkscape:window-maximized="1"
     inkscape:current-layer="svg1650" />
  <title
     id="title1646">CSS3 icon</title>
  <path
     d="M1.5 0h21l-1.91 21.563L11.977 24l-8.565-2.438L1.5 0zm17.09 4.413L5.41 4.41l.213 2.622 10.125.002-.255 2.716h-6.64l.24 2.573h6.182l-.366 3.523-2.91.804-2.956-.81-.188-2.11h-2.61l.29 3.855L12 19.288l5.373-1.53L18.59 4.414z"
     id="path1648" />
  <path
     style="fill:#e334a9;fill-opacity:1;stroke:none;stroke-width:0.04571429;stroke-opacity:1"
     d="M 7.664,22.756385 C 3.767399,21.640923 3.4238058,21.534762 3.421602,21.445596 3.4202831,21.392232 2.9931388,16.555429 2.4723925,10.697143 L 1.5255811,0.04571429 11.990883,0.03418741 c 5.755916,-0.0063398 10.469818,-0.0063398 10.475338,0 C 22.483464,0.0539916 20.573869,21.516798 20.553008,21.537659 20.526132,21.564535 12.162065,23.9317 12.018286,23.953122 11.955429,23.962488 9.996,23.423956 7.664,22.756385 Z m 7.028571,-4.211999 2.697143,-0.769531 0.602855,-6.555999 c 0.33157,-3.6057995 0.604142,-6.6125703 0.605714,-6.6817131 l 0.0029,-0.1257143 H 11.990161 5.3791796 l 0.026658,0.24 c 0.014662,0.132 0.059566,0.6822857 0.099786,1.2228571 0.04022,0.5405714 0.082415,1.0291429 0.093766,1.0857143 l 0.020638,0.1028571 h 5.0505574 c 2.777807,0 5.050384,0.015429 5.050171,0.034286 C 15.720527,7.116 15.66919,7.6662857 15.606639,8.32 15.544087,8.9737143 15.492832,9.5548571 15.49274,9.6114286 l -1.69e-4,0.1028571 H 12.157582 8.8225934 l 0.024475,0.2171429 c 0.013461,0.1194284 0.06946,0.7108574 0.124443,1.3142854 l 0.099968,1.097143 3.0950536,0.01175 3.095054,0.01175 -0.02184,0.125396 c -0.01201,0.06897 -0.09571,0.845395 -0.185986,1.725395 -0.09028,0.88 -0.167826,1.603916 -0.172324,1.608702 -0.0045,0.0048 -0.655119,0.186975 -1.445827,0.404863 L 11.997961,16.626867 10.529523,16.224579 9.0610848,15.82229 8.9840558,14.905431 C 8.9416901,14.401158 8.8964142,13.921714 8.8834423,13.84 L 8.8598569,13.691429 H 7.5311269 6.2023963 L 6.2272398,13.84 c 0.013664,0.08171 0.08206,0.946464 0.1519908,1.921666 0.069931,0.975202 0.1381833,1.790814 0.1516723,1.812472 0.017581,0.02823 5.2587621,1.699611 5.4416681,1.735317 0.01257,0.0025 1.236572,-0.341827 2.72,-0.765069 z"
     id="path1658"
     inkscape:connector-curvature="0" />
  <path
     style="fill:#2187c5;fill-opacity:1;stroke:none;stroke-width:0.04571429;stroke-opacity:1"
     d="M 11.428571,23.79047 C 9.328208,23.216834 4.7575256,21.908015 3.939208,21.645885 3.6979531,21.568604 3.4865266,21.482663 3.4693713,21.454906 3.452216,21.427148 3.2770981,19.581581 3.0802204,17.353647 2.8833427,15.125712 2.4645601,10.381714 2.1495926,6.8114286 1.8346251,3.2411429 1.5672021,0.26342857 1.5553193,0.19428571 L 1.5337143,0.06857143 H 11.978286 22.422857 v 0.14981679 c 0,0.14703252 -0.280045,3.37361098 -0.82418,9.49589748 -0.703923,7.9201413 -1.059082,11.7738883 -1.0876,11.8012933 -0.05122,0.04922 -8.165258,2.348121 -8.435131,2.389871 -0.08469,0.0131 -0.352686,-0.0345 -0.647375,-0.11498 z m 3.370359,-5.257561 2.593215,-0.737869 0.02402,-0.143234 c 0.01321,-0.07878 0.106791,-1.058663 0.207957,-2.17752 0.101166,-1.118857 0.368554,-4.056474 0.594194,-6.5280378 0.225641,-2.4715634 0.410256,-4.502992 0.410256,-4.5142857 0,-0.011294 -2.982857,-0.020534 -6.628571,-0.020534 -3.6457143,0 -6.6285714,0.015693 -6.6285714,0.034874 0,0.1191336 0.1862711,2.3453168 0.2058719,2.4604377 l 0.024012,0.1410263 5.0356735,0.03054 c 2.769619,0.016797 5.041591,0.036459 5.048824,0.043692 0.0072,0.00723 -0.0373,0.5471717 -0.09896,1.199862 -0.06166,0.6526907 -0.112212,1.2329956 -0.112338,1.2895671 l -2.26e-4,0.1028571 H 12.136743 8.7992014 l 0.027661,0.24 c 0.015214,0.1320003 0.072342,0.7234283 0.1269522,1.3142853 l 0.099291,1.074286 3.0970954,0.01175 3.097095,0.01175 -0.02232,0.102537 c -0.01228,0.0564 -0.09712,0.822538 -0.18855,1.702538 -0.09143,0.88 -0.179454,1.61319 -0.195615,1.629312 -0.01616,0.01612 -0.662258,0.204459 -1.43577,0.418526 l -1.406386,0.389213 -1.4279,-0.390546 C 9.7854121,16.003134 9.1287817,15.814797 9.1115785,15.799408 9.0943749,15.78402 9.0474848,15.401143 9.0073783,14.948571 8.9672718,14.496 8.9221257,14.028 8.9070537,13.908571 L 8.8796498,13.691429 H 7.5310784 6.182507 l 0.027647,0.217142 c 0.015206,0.119429 0.080059,0.937143 0.1441189,1.817143 0.06406,0.88 0.1316777,1.659957 0.1502624,1.733238 0.041641,0.164195 -0.1707827,0.09066 5.0840357,1.759992 0.172084,0.05467 0.364483,0.08544 0.457143,0.07311 0.088,-0.0117 1.326947,-0.353323 2.753216,-0.75915 z"
     id="path2206"
     inkscape:connector-curvature="0" />
</svg>
