<?xml version="1.0" encoding="UTF-8" standalone="no"?>
<svg
   xmlns:dc="http://purl.org/dc/elements/1.1/"
   xmlns:cc="http://creativecommons.org/ns#"
   xmlns:rdf="http://www.w3.org/1999/02/22-rdf-syntax-ns#"
   xmlns:svg="http://www.w3.org/2000/svg"
   xmlns="http://www.w3.org/2000/svg"
   xmlns:sodipodi="http://sodipodi.sourceforge.net/DTD/sodipodi-0.dtd"
   xmlns:inkscape="http://www.inkscape.org/namespaces/inkscape"
   role="img"
   viewBox="0 0 24 24"
   version="1.1"
   id="svg1039"
   sodipodi:docname="graphql.svg"
   inkscape:version="0.92.4 5da689c313, 2019-01-14">
  <metadata
     id="metadata1045">
    <rdf:RDF>
      <cc:Work
         rdf:about="">
        <dc:format>image/svg+xml</dc:format>
        <dc:type
           rdf:resource="http://purl.org/dc/dcmitype/StillImage" />
      </cc:Work>
    </rdf:RDF>
  </metadata>
  <defs
     id="defs1043" />
  <sodipodi:namedview
     pagecolor="#ffffff"
     bordercolor="#666666"
     borderopacity="1"
     objecttolerance="10"
     gridtolerance="10"
     guidetolerance="10"
     inkscape:pageopacity="0"
     inkscape:pageshadow="2"
     inkscape:window-width="1366"
     inkscape:window-height="712"
     id="namedview1041"
     showgrid="false"
     inkscape:zoom="19.666667"
     inkscape:cx="15.571133"
     inkscape:cy="13.191856"
     inkscape:window-x="0"
     inkscape:window-y="28"
     inkscape:window-maximized="1"
     inkscape:current-layer="svg1039" />
  <title
     id="title1035">GraphQL icon</title>
  <path
     d="M14.051 2.751l4.935 2.85c.816-.859 2.173-.893 3.032-.077.148.14.274.301.377.477.589 1.028.232 2.339-.796 2.928-.174.1-.361.175-.558.223v5.699c1.146.273 1.854 1.423 1.58 2.569-.048.204-.127.4-.232.581-.592 1.023-1.901 1.374-2.927.782-.196-.113-.375-.259-.526-.429l-4.905 2.832c.372 1.124-.238 2.335-1.361 2.706-.217.071-.442.108-.67.108-1.181.001-2.139-.955-2.14-2.136 0-.205.029-.41.088-.609l-4.936-2.847c-.816.854-2.171.887-3.026.07-.854-.816-.886-2.171-.07-3.026.283-.297.646-.506 1.044-.603l.001-5.699c-1.15-.276-1.858-1.433-1.581-2.584.047-.198.123-.389.224-.566.592-1.024 1.902-1.374 2.927-.782.177.101.339.228.48.377l4.938-2.85C9.613 1.612 10.26.423 11.39.088 11.587.029 11.794 0 12 0c1.181-.001 2.139.954 2.14 2.134.001.209-.03.418-.089.617zm-.515.877c-.019.021-.037.039-.058.058l6.461 11.19c.026-.009.056-.016.082-.023V9.146c-1.145-.283-1.842-1.442-1.558-2.588.006-.024.012-.049.019-.072l-4.946-2.858zm-3.015.059l-.06-.06-4.946 2.852c.327 1.135-.327 2.318-1.461 2.645-.026.008-.051.014-.076.021v5.708l.084.023 6.461-11.19-.002.001zm2.076.507c-.39.112-.803.112-1.192 0l-6.46 11.189c.294.283.502.645.6 1.041h12.911c.097-.398.307-.761.603-1.044L12.597 4.194zm.986 16.227l4.913-2.838c-.015-.047-.027-.094-.038-.142H5.542l-.021.083 4.939 2.852c.388-.404.934-.653 1.54-.653.627 0 1.19.269 1.583.698z"
     id="path1037" />
  <path
     style="fill:#e334a9;fill-opacity:0;stroke:none;stroke-width:0.05084746;stroke-opacity:1"
     d="M 11.472828,23.904875 C 10.74777,23.703125 10.175178,23.141754 9.9714379,22.432908 9.9103249,22.220285 9.8907745,22.000522 9.9037442,21.671973 L 9.9219806,21.210005 7.4661379,19.794097 5.0102955,18.378188 4.8329051,18.533939 C 4.235704,19.058288 3.3206323,19.186756 2.5965276,18.847907 1.4144218,18.294733 0.98929844,16.813444 1.7114231,15.763872 1.9475337,15.420697 2.3484459,15.093066 2.6803583,14.972045 l 0.3009443,-0.10973 V 12.007561 9.152808 L 2.6524806,9.0095575 C 1.8118909,8.6433572 1.3157513,7.8557163 1.3672224,6.9691614 1.400211,6.4009558 1.5480464,6.0458977 1.9149507,5.6536756 2.3901991,5.1456338 2.9476876,4.9242381 3.6230966,4.9753192 c 0.4318813,0.032663 0.8965867,0.221849 1.2005988,0.4887753 l 0.1850335,0.1624617 2.456626,-1.418783 2.4566257,-1.418783 -0.018236,-0.458406 C 9.8761767,1.6376319 10.03685,1.1656882 10.451065,0.72294454 c 0.819429,-0.87586726 2.128021,-0.92493209 2.996726,-0.11236038 0.284241,0.2658746 0.526095,0.69167734 0.618578,1.08905664 0.06054,0.2601244 0.04785,0.8039178 -0.0228,0.9773193 -0.02598,0.063769 0.481843,0.3772052 2.42277,1.49536 1.350604,0.7780739 2.474782,1.4250603 2.498173,1.4377477 0.02339,0.012687 0.114916,-0.046562 0.20339,-0.1316649 0.08847,-0.085103 0.277643,-0.2130473 0.420377,-0.2843201 1.286577,-0.6424366 2.788085,0.1300103 3.033094,1.5603671 0.155819,0.909664 -0.378284,1.8708163 -1.250821,2.2509351 l -0.3384,0.147423 v 2.850252 2.850251 l 0.334286,0.145631 c 1.547692,0.674248 1.729254,2.780078 0.318319,3.692009 -0.622792,0.40253 -1.360011,0.457643 -2.017549,0.150827 -0.186145,-0.08686 -0.423349,-0.2405 -0.527121,-0.341429 l -0.188674,-0.183508 -0.904546,0.522017 c -0.4975,0.287109 -1.608628,0.92583 -2.469172,1.41938 l -1.564627,0.897364 0.0392,0.177966 c 0.07629,0.346306 0.03504,0.973748 -0.0844,1.284005 -0.377189,0.979766 -1.506423,1.562388 -2.495043,1.287302 z m 4.578906,-4.88011 c 1.844743,-1.065539 2.416444,-1.418606 2.428868,-1.5 l 0.01625,-0.106451 h -6.486587 c -5.3987448,0 -6.4865875,0.01147 -6.4865875,0.06837 0,0.06798 4.8150045,2.880783 4.9313725,2.880783 0.03351,0 0.154283,-0.0799 0.268374,-0.177559 0.435867,-0.373086 1.248653,-0.531199 1.842783,-0.358481 0.299153,0.08697 0.754278,0.34576 0.883188,0.502199 0.03838,0.04658 0.09677,0.08469 0.129754,0.08469 0.03298,0 1.145647,-0.627097 2.472587,-1.393549 z m 2.502581,-2.82147 c 0.04862,-0.136905 0.186459,-0.382879 0.306299,-0.546611 l 0.217891,-0.297692 -3.216657,-5.5672908 -3.216657,-5.5672911 -0.644532,0.00239 -0.644532,0.00239 -3.2245316,5.5845757 -3.2245318,5.5845752 0.1466062,0.158287 c 0.1882478,0.203246 0.279218,0.354863 0.3924292,0.654049 l 0.091393,0.241526 h 6.464208 6.464207 l 0.08841,-0.248918 z M 4.9799818,13.337805 C 9.6863988,5.1906546 10.555634,3.6672213 10.518803,3.6303904 10.453789,3.5653768 5.4941735,6.4499855 5.5165853,6.539777 c 0.010084,0.040399 0.030164,0.2138044 0.044623,0.3853459 0.072731,0.862858 -0.4560609,1.7233175 -1.2795185,2.0820544 L 3.9474043,9.152808 v 2.861566 c 0,2.434577 0.010746,2.861567 0.072016,2.861567 0.040954,0 0.4552651,-0.663432 0.9605615,-1.538136 z M 20.066048,12.009968 V 9.1439946 L 19.824523,9.0525089 C 19.465316,8.9164472 19.252198,8.7675506 18.961677,8.4496736 18.573313,8.0247419 18.46593,7.7137736 18.465561,7.0129848 L 18.465256,6.4466387 15.998699,5.0205473 C 14.6421,4.2361968 13.512665,3.6135888 13.488849,3.6369739 c -0.02382,0.023385 0.04754,0.1992193 0.158576,0.3907428 0.111033,0.1915234 1.534559,2.6592413 3.163392,5.4838176 1.628832,2.8245767 2.993805,5.1870767 3.033273,5.2499997 0.03947,0.06292 0.105555,0.114407 0.146859,0.114407 0.06535,0 0.0751,-0.372221 0.0751,-2.865973 z"
     id="path1593"
     inkscape:connector-curvature="0" />
  <path
     style="fill:#e334a9;fill-opacity:1;stroke:none;stroke-width:0.05084746;stroke-opacity:1"
     d="M 11.472828,23.904875 C 10.74777,23.703125 10.175178,23.141754 9.9714379,22.432908 9.9103249,22.220285 9.8907745,22.000522 9.9037442,21.671973 L 9.9219806,21.210005 7.4661379,19.794097 5.0102955,18.378188 4.8329051,18.533939 C 4.235704,19.058288 3.3206323,19.186756 2.5965276,18.847907 1.4144218,18.294733 0.98929844,16.813444 1.7114231,15.763872 1.9475337,15.420697 2.3484459,15.093066 2.6803583,14.972045 l 0.3009443,-0.10973 V 12.007561 9.152808 L 2.6524806,9.0095575 C 1.8118909,8.6433572 1.3157513,7.8557163 1.3672224,6.9691614 1.400211,6.4009558 1.5480464,6.0458977 1.9149507,5.6536756 2.3901991,5.1456338 2.9476876,4.9242381 3.6230966,4.9753192 c 0.4318813,0.032663 0.8965867,0.221849 1.2005988,0.4887753 l 0.1850335,0.1624617 2.456626,-1.418783 2.4566257,-1.418783 -0.018236,-0.458406 C 9.8761767,1.6376319 10.03685,1.1656882 10.451065,0.72294454 c 0.819429,-0.87586726 2.128021,-0.92493209 2.996726,-0.11236038 0.284241,0.2658746 0.526095,0.69167734 0.618578,1.08905664 0.06054,0.2601244 0.04785,0.8039178 -0.0228,0.9773193 -0.02598,0.063769 0.481843,0.3772052 2.42277,1.49536 1.350604,0.7780739 2.474782,1.4250603 2.498173,1.4377477 0.02339,0.012687 0.114916,-0.046562 0.20339,-0.1316649 0.08847,-0.085103 0.277643,-0.2130473 0.420377,-0.2843201 1.286577,-0.6424366 2.788085,0.1300103 3.033094,1.5603671 0.155819,0.909664 -0.378284,1.8708163 -1.250821,2.2509351 l -0.3384,0.147423 v 2.850252 2.850251 l 0.334286,0.145631 c 1.547692,0.674248 1.729254,2.780078 0.318319,3.692009 -0.622792,0.40253 -1.360011,0.457643 -2.017549,0.150827 -0.186145,-0.08686 -0.423349,-0.2405 -0.527121,-0.341429 l -0.188674,-0.183508 -0.904546,0.522017 c -0.4975,0.287109 -1.608628,0.92583 -2.469172,1.41938 l -1.564627,0.897364 0.0392,0.177966 c 0.07629,0.346306 0.03504,0.973748 -0.0844,1.284005 -0.377189,0.979766 -1.506423,1.562388 -2.495043,1.287302 z m 4.578906,-4.88011 c 1.844743,-1.065539 2.416444,-1.418606 2.428868,-1.5 l 0.01625,-0.106451 h -6.486587 c -5.3987448,0 -6.4865875,0.01147 -6.4865875,0.06837 0,0.06798 4.8150045,2.880783 4.9313725,2.880783 0.03351,0 0.154283,-0.0799 0.268374,-0.177559 0.435867,-0.373086 1.248653,-0.531199 1.842783,-0.358481 0.299153,0.08697 0.754278,0.34576 0.883188,0.502199 0.03838,0.04658 0.09677,0.08469 0.129754,0.08469 0.03298,0 1.145647,-0.627097 2.472587,-1.393549 z m 2.502581,-2.82147 c 0.04862,-0.136905 0.186459,-0.382879 0.306299,-0.546611 l 0.217891,-0.297692 -3.216657,-5.5672908 -3.216657,-5.5672911 -0.644532,0.00239 -0.644532,0.00239 -3.2245316,5.5845757 -3.2245318,5.5845752 0.1466062,0.158287 c 0.1882478,0.203246 0.279218,0.354863 0.3924292,0.654049 l 0.091393,0.241526 h 6.464208 6.464207 l 0.08841,-0.248918 z M 4.9799818,13.337805 C 9.6863988,5.1906546 10.555634,3.6672213 10.518803,3.6303904 10.453789,3.5653768 5.4941735,6.4499855 5.5165853,6.539777 c 0.010084,0.040399 0.030164,0.2138044 0.044623,0.3853459 0.072731,0.862858 -0.4560609,1.7233175 -1.2795185,2.0820544 L 3.9474043,9.152808 v 2.861566 c 0,2.434577 0.010746,2.861567 0.072016,2.861567 0.040954,0 0.4552651,-0.663432 0.9605615,-1.538136 z M 20.066048,12.009968 V 9.1439946 L 19.824523,9.0525089 C 19.465316,8.9164472 19.252198,8.7675506 18.961677,8.4496736 18.573313,8.0247419 18.46593,7.7137736 18.465561,7.0129848 L 18.465256,6.4466387 15.998699,5.0205473 C 14.6421,4.2361968 13.512665,3.6135888 13.488849,3.6369739 c -0.02382,0.023385 0.04754,0.1992193 0.158576,0.3907428 0.111033,0.1915234 1.534559,2.6592413 3.163392,5.4838176 1.628832,2.8245767 2.993805,5.1870767 3.033273,5.2499997 0.03947,0.06292 0.105555,0.114407 0.146859,0.114407 0.06535,0 0.0751,-0.372221 0.0751,-2.865973 z"
     id="path1595"
     inkscape:connector-curvature="0" />
</svg>
