<?xml version="1.0" encoding="UTF-8" standalone="no"?>
<svg
   xmlns:dc="http://purl.org/dc/elements/1.1/"
   xmlns:cc="http://creativecommons.org/ns#"
   xmlns:rdf="http://www.w3.org/1999/02/22-rdf-syntax-ns#"
   xmlns:svg="http://www.w3.org/2000/svg"
   xmlns="http://www.w3.org/2000/svg"
   xmlns:sodipodi="http://sodipodi.sourceforge.net/DTD/sodipodi-0.dtd"
   xmlns:inkscape="http://www.inkscape.org/namespaces/inkscape"
   role="img"
   viewBox="0 0 24 24"
   version="1.1"
   id="svg2253"
   sodipodi:docname="html5.svg"
   inkscape:version="0.92.4 5da689c313, 2019-01-14">
  <metadata
     id="metadata2259">
    <rdf:RDF>
      <cc:Work
         rdf:about="">
        <dc:format>image/svg+xml</dc:format>
        <dc:type
           rdf:resource="http://purl.org/dc/dcmitype/StillImage" />
      </cc:Work>
    </rdf:RDF>
  </metadata>
  <defs
     id="defs2257" />
  <sodipodi:namedview
     pagecolor="#ffffff"
     bordercolor="#666666"
     borderopacity="1"
     objecttolerance="10"
     gridtolerance="10"
     guidetolerance="10"
     inkscape:pageopacity="0"
     inkscape:pageshadow="2"
     inkscape:window-width="1366"
     inkscape:window-height="712"
     id="namedview2255"
     showgrid="false"
     inkscape:zoom="256"
     inkscape:cx="1.0020301"
     inkscape:cy="19.708204"
     inkscape:window-x="0"
     inkscape:window-y="28"
     inkscape:window-maximized="1"
     inkscape:current-layer="svg2253" />
  <title
     id="title2249">HTML5 icon</title>
  <path
     d="M1.5 0h21l-1.91 21.563L11.977 24l-8.564-2.438L1.5 0zm7.031 9.75l-.232-2.718 10.059.003.23-2.622L5.412 4.41l.698 8.01h9.126l-.326 3.426-2.91.804-2.955-.81-.188-2.11H6.248l.33 4.171L12 19.351l5.379-1.443.744-8.157H8.531z"
     id="path2251" />
  <path
     style="fill:#2187c5;fill-opacity:1;stroke:none;stroke-width:0.10169491;stroke-opacity:1"
     d="M 7.5687533,22.696602 3.4527607,21.508475 2.5147405,10.983051 C 1.9988294,5.1940678 1.5743311,0.35466102 1.571411,0.22881356 L 1.5661017,0 H 11.989831 22.413559 l -6.7e-5,0.22881356 c -3.7e-5,0.12584746 -0.411902,4.87187574 -0.915254,10.54672944 -0.503353,5.674854 -0.915187,10.413491 -0.915187,10.530304 0,0.192782 -0.388268,0.322247 -4.205913,1.402423 -2.313251,0.65452 -4.31537,1.18698 -4.449152,1.183247 -0.133782,-0.0037 -2.0954369,-0.541445 -4.3592327,-1.194915 z m 7.2176877,-4.039305 c 1.426271,-0.379985 2.60199,-0.69591 2.612709,-0.702054 0.02509,-0.01438 0.743223,-7.839798 0.743223,-8.0988552 0,-0.1899214 -0.133068,-0.1953709 -4.770722,-0.1953709 H 8.6009284 L 8.5445282,9.279661 C 8.5135081,9.0699153 8.4583464,8.4983157 8.4219468,8.0094399 L 8.3557658,7.1205745 13.376187,7.0941855 18.39661,7.0677965 18.46685,6.3050846 C 18.50548,5.8855931 18.56198,5.2792372 18.59241,4.957627 L 18.64773,4.3728813 H 11.994665 5.3416008 l 0.046135,0.3305084 c 0.058092,0.4161625 0.6529418,7.3510413 0.6529418,7.6121243 0,0.186631 0.1504001,0.192961 4.5852104,0.192961 h 4.58521 l -0.05785,0.381356 c -0.03182,0.209745 -0.109508,0.953389 -0.172643,1.652542 -0.06314,0.699152 -0.121209,1.274576 -0.129053,1.278719 -0.0078,0.0041 -0.649368,0.180377 -1.425609,0.391632 L 12.014594,16.596825 10.55853,16.206106 9.102466,15.815387 9.041105,15.153457 C 9.0073556,14.789394 8.9551091,14.319915 8.9250007,14.110169 L 8.870258,13.728814 H 7.5571629 6.2440678 l 0.00208,0.381355 c 0.00259,0.47317 0.2847316,3.806569 0.3247012,3.836186 0.096966,0.07185 5.437659,1.457773 5.520671,1.432629 0.05593,-0.01694 1.268644,-0.341701 2.694916,-0.721687 z"
     id="path2261"
     inkscape:connector-curvature="0" />
  <path
     style="fill:#f16528;fill-opacity:1;stroke:none;stroke-width:0.10169491;stroke-opacity:1"
     d="M 10.159322,23.387279 C 9.3762712,23.168572 7.5686441,22.653194 6.1423729,22.241994 L 3.5491525,21.494357 3.4732703,21.043789 C 3.4315352,20.795977 3.0089963,16.131356 2.5342952,10.677966 2.059594,5.2245763 1.6470138,0.59110169 1.6174502,0.38135593 L 1.5636981,0 H 11.983838 22.403977 l -0.0503,0.48305085 C 22.326017,0.74872881 22.147116,2.7737288 21.956121,4.9830508 21.765126,7.1923729 21.367297,11.786914 21.072054,15.193141 l -0.536804,6.193142 -0.330762,0.1382 c -0.34922,0.145914 -5.800949,1.703957 -7.214652,2.061867 -0.456777,0.115643 -0.960167,0.207631 -1.118644,0.204419 -0.158478,-0.0032 -0.928819,-0.184784 -1.71187,-0.40349 z m 4.562424,-4.669741 c 1.44629,-0.388405 2.653045,-0.729616 2.681676,-0.758247 0.07975,-0.07975 0.745028,-7.37787 0.714732,-7.840647 L 18.091525,9.7118644 13.363111,9.6610169 8.6346965,9.6101695 8.5699999,9.0508475 C 8.5344169,8.7432203 8.4787557,8.1826271 8.4463085,7.8050847 L 8.3873137,7.1186441 h 5.0169363 5.016937 l 0.06179,-0.5847458 c 0.03398,-0.3216102 0.09197,-0.9394068 0.128857,-1.3728814 l 0.06707,-0.7881355 H 11.99201 5.3051193 l 0.073072,0.6823378 c 0.04019,0.3752857 0.1968578,2.1501098 0.3481512,3.9440536 0.1512934,1.7939442 0.3094938,3.3174002 0.3515563,3.3854582 0.058217,0.0942 1.158147,0.123744 4.6067802,0.123744 3.790671,0 4.521587,0.02271 4.476921,0.139106 -0.02936,0.07651 -0.111356,0.765769 -0.182217,1.531689 -0.07086,0.765922 -0.177582,1.454288 -0.23716,1.529704 -0.05958,0.07541 -0.698477,0.296377 -1.419772,0.491025 l -1.311448,0.353906 -0.92584,-0.248487 C 10.57595,16.168749 9.9254068,15.991296 9.6395105,15.911076 L 9.119699,15.765221 9.048893,14.892576 C 9.0099497,14.41262 8.9529519,13.954429 8.9222311,13.874372 8.877769,13.758505 8.5989182,13.728814 7.5552215,13.728814 H 6.2440678 l 3.458e-4,0.635593 c 3.559e-4,0.651333 0.1621788,2.71547 0.2588886,3.302264 0.046587,0.282672 0.1128184,0.344092 0.4821308,0.447113 0.9622657,0.268428 4.910007,1.29603 5.004696,1.302729 0.0561,0.004 1.285325,-0.310571 2.731615,-0.698975 z"
     id="path2809"
     inkscape:connector-curvature="0" />
  <path
     style="fill:#f16528;fill-opacity:1;stroke:none;stroke-width:0.01104854;stroke-opacity:1"
     d="M 10.777857,16.261221 C 10.115497,16.08296 9.4685039,15.908853 9.3400953,15.874317 l -0.2334701,-0.06279 -0.00676,-0.0734 c -0.079212,-0.860664 -0.123945,-1.284579 -0.1728017,-1.63755 -0.037644,-0.271963 -0.036247,-0.256652 -0.022645,-0.248245 0.038013,0.02349 0.09383,0.48221 0.1666699,1.369742 0.024405,0.297366 0.046265,0.542557 0.048577,0.544869 0.015601,0.0156 2.8504676,0.787193 2.8921856,0.787193 0.01518,0 0.9013,-0.236771 1.39003,-0.371415 0.269594,-0.07427 0.585952,-0.170837 0.823116,-0.251247 0.367185,-0.124494 0.502602,-0.185503 0.5302,-0.238872 0.06341,-0.122629 0.150743,-0.723887 0.248476,-1.710753 0.07385,-0.745711 0.132314,-1.229054 0.161512,-1.335298 0.0052,-0.01896 -6.06e-4,-0.02775 -0.02763,-0.04173 -0.08299,-0.04292 -0.428347,-0.0692 -1.083807,-0.08248 -0.394684,-0.008 -0.377272,-0.0085 0.367364,-0.01019 0.444397,-10e-4 0.781684,0.0024 0.781684,0.0079 0,0.0054 -0.01492,0.109569 -0.03315,0.231596 -0.05192,0.347411 -0.106807,0.857549 -0.198722,1.84685 -0.06442,0.693383 -0.110604,1.149634 -0.120222,1.187719 -0.0073,0.02907 -0.01644,0.03538 -0.07397,0.05132 -0.890003,0.246648 -2.749089,0.749441 -2.768417,0.748722 -0.01439,-5.36e-4 -0.568099,-0.146824 -1.230459,-0.325086 z"
     id="path1462"
     inkscape:connector-curvature="0" />
  <path
     style="fill:#f16528;fill-opacity:1;stroke:none;stroke-width:0.01104854;stroke-opacity:1"
     d="M 4.6293423,14.305756 V 9.4941152 h 0.569 c 0.5597711,0 0.569,3.549e-4 0.569,0.021882 0,0.012035 0.02248,0.2668422 0.049956,0.5662378 0.1142375,1.244821 0.2112828,2.131054 0.2491664,2.275429 0.00842,0.03207 0.018195,0.04303 0.046359,0.05194 0.057891,0.01832 0.1590955,0.03307 0.3063829,0.04463 0.4840303,0.03801 1.00843,0.04505 4.1597764,0.05583 3.359418,0.01149 4.073648,0.02239 4.402845,0.06719 0.08364,0.01138 0.176784,0.0392 0.176767,0.0528 -5e-6,0.0041 -0.0072,0.04218 -0.01602,0.08471 -0.02625,0.126815 -0.08039,0.587119 -0.144623,1.229627 -0.08641,0.864342 -0.135813,1.248149 -0.199957,1.553534 -0.04389,0.208948 -0.04536,0.211349 -0.163263,0.267167 -0.182405,0.08635 -0.567631,0.217872 -1.011877,0.345467 -0.339334,0.09746 -1.587531,0.432525 -1.611269,0.432525 -0.02178,0 -0.259866,-0.06276 -1.178489,-0.310658 -0.8840932,-0.23858 -1.6885856,-0.462774 -1.6999756,-0.473745 -0.00525,-0.0051 -0.023805,-0.184882 -0.041229,-0.399606 -0.0486,-0.598937 -0.07486,-0.87826 -0.105256,-1.119612 C 8.953125,13.973362 8.9328799,13.871949 8.9075701,13.843391 8.8203352,13.74496 8.5448509,13.726193 7.1830082,13.725906 L 6.23981,13.725707 6.24563,14.297469 c 0.00566,0.555604 0.012094,0.699118 0.063291,1.411452 0.071661,0.997041 0.1659235,1.904143 0.2164222,2.08265 0.040061,0.141613 0.119751,0.214953 0.3021246,0.27805 0.1593878,0.05514 2.2267117,0.604841 3.6299782,0.965202 0.157994,0.04057 0.289334,0.07575 0.291866,0.07817 0.0025,0.0024 -1.3734266,0.0044 -3.0576849,0.0044 h -3.062288 z"
     id="path1466"
     inkscape:connector-curvature="0" />
  <path
     style="fill:#f16528;fill-opacity:1;stroke:none;stroke-width:0.00390625;stroke-opacity:1"
     d="m 11.597761,16.441605 c -0.222364,-0.05987 -0.408252,-0.109861 -0.413086,-0.111086 l -0.0088,-0.0022 V 14.8948 13.461281 h 1.937402 1.937402 l -0.0019,0.01074 c -0.0017,0.01006 -0.0064,0.05434 -0.03104,0.293945 -0.0054,0.05264 -0.02039,0.206446 -0.03329,0.341797 -0.06682,0.701031 -0.136323,1.210457 -0.201731,1.478516 -0.01972,0.08081 -0.03305,0.113424 -0.05387,0.131747 -0.08912,0.07845 -0.699884,0.287714 -1.381142,0.473223 -0.450993,0.122808 -1.333682,0.359816 -1.339095,0.359558 -0.0036,-1.74e-4 -0.188542,-0.0493 -0.410905,-0.109176 z"
     id="path1468"
     inkscape:connector-curvature="0" />
  <path
     style="fill:#f16528;fill-opacity:1;stroke:none;stroke-width:0.00390625;stroke-opacity:1"
     d="m 11.763776,16.522151 c -0.124609,-0.03285 -0.307861,-0.08135 -0.407226,-0.107772 l -0.180664,-0.04805 v -0.0153 c 0,-0.01275 0.0011,-0.01496 0.0068,-0.01326 0.04874,0.01453 0.746746,0.199436 0.798355,0.211485 l 0.0298,0.007 0.05809,-0.0145 c 0.171426,-0.04278 1.174762,-0.312521 1.42723,-0.383708 0.304249,-0.08579 0.669698,-0.201387 0.902344,-0.285432 0.212141,-0.07664 0.320025,-0.128046 0.349321,-0.166455 0.06393,-0.08381 0.148615,-0.64773 0.254119,-1.692131 0.03606,-0.356958 0.05645,-0.549861 0.05831,-0.551725 8.78e-4,-8.78e-4 0.0058,-0.001 0.01089,-3.27e-4 l 0.0093,0.0013 -0.01635,0.158203 c -0.02288,0.221386 -0.05397,0.541551 -0.09728,1.001953 -0.06788,0.721477 -0.104287,1.083241 -0.115577,1.148438 -0.0022,0.01289 -0.0066,0.02737 -0.0097,0.03218 -0.01198,0.01858 0.0215,0.0085 -0.558254,0.167537 -1.17942,0.323476 -2.251591,0.610977 -2.277096,0.610598 -0.0087,-1.3e-4 -0.117826,-0.02711 -0.242436,-0.05996 z"
     id="path1470"
     inkscape:connector-curvature="0" />
  <path
     style="fill:#f16528;fill-opacity:1;stroke:none;stroke-width:0.00552427;stroke-opacity:1"
     d="M 8.1889452,22.872669 C 7.5446058,22.687254 3.4903549,21.51743 3.4712171,21.511403 l -0.016573,-0.0052 -0.082961,-0.932241 -0.082961,-0.932242 0.018605,-0.0017 c 0.010233,-9.61e-4 0.019964,-3.88e-4 0.021626,0.0013 0.00166,0.0017 0.011313,0.09194 0.021447,0.200622 0.089192,0.956487 0.1070146,1.11824 0.1544651,1.401891 0.022872,0.136726 0.043302,0.250056 0.045401,0.251844 0.00557,0.0047 3.3147922,0.957668 4.5889604,1.321434 l 0.4916602,0.140365 0.00171,0.02016 c 0.00119,0.01399 -4.983e-4,0.02 -0.00552,0.01964 -0.00398,-2.84e-4 -0.2011408,-0.05631 -0.438132,-0.12451 z"
     id="path1472"
     inkscape:connector-curvature="0" />
  <path
     style="fill:#f16528;fill-opacity:1;stroke:none;stroke-width:0.00552427;stroke-opacity:1"
     d="M 3.2450389,19.145898 C 3.2438847,19.1421 3.1481036,18.071289 3.0321919,16.766318 2.9162802,15.461347 2.8200093,14.380592 2.8182566,14.364641 l -0.00319,-0.029 h 0.020096 c 0.017837,0 0.020096,0.0016 0.020096,0.01403 0,0.0345 0.4143768,4.65295 0.4283451,4.77413 l 0.00334,0.029 h -0.019906 c -0.011123,0 -0.020832,-0.003 -0.022004,-0.0069 z"
     id="path1474"
     inkscape:connector-curvature="0" />
  <path
     style="fill:#f16528;fill-opacity:1;stroke:none;stroke-width:0.00552427;stroke-opacity:1"
     d="M 6.534734,17.801256 C 6.502967,17.689231 6.464661,17.400342 6.4158163,16.904425 6.3506743,16.243039 6.2805908,15.289005 6.2585629,14.763769 c -0.00729,-0.173713 -0.012932,-0.431504 -0.00937,-0.427946 0.0016,0.0016 0.00806,0.08239 0.014351,0.179522 0.056202,0.867809 0.1896548,2.453813 0.2627936,3.123144 0.01075,0.09838 0.018393,0.180029 0.016983,0.181438 -0.00141,0.0014 -0.00527,-0.007 -0.00858,-0.01867 z"
     id="path1478"
     inkscape:connector-curvature="0" />
  <path
     style="fill:#f16528;fill-opacity:1;stroke:none;stroke-width:0.00552427;stroke-opacity:1"
     d="m 10.812974,19.119627 c -0.0091,-0.0025 -0.181886,-0.04722 -0.383937,-0.09935 -1.4103911,-0.363932 -3.3098135,-0.866639 -3.5247791,-0.932879 -0.080789,-0.02489 -0.168215,-0.05906 -0.2078452,-0.08122 -0.01967,-0.011 -0.034874,-0.02089 -0.033787,-0.02198 0.00109,-0.0011 0.035456,0.0079 0.076376,0.02007 0.5257017,0.155771 2.7931279,0.754911 3.9386283,1.040734 0.06836,0.01706 0.133618,0.03347 0.145012,0.03647 0.0189,0.005 0.02072,0.0071 0.02072,0.02458 0,0.02029 -0.0023,0.0213 -0.03038,0.01357 z"
     id="path1480"
     inkscape:connector-curvature="0" />
  <path
     style="fill:#f16528;fill-opacity:1;stroke:none;stroke-width:0.00552427;stroke-opacity:1"
     d="m 2.7116297,13.176492 c 0,-0.0056 -0.031122,-0.359176 -0.069161,-0.785828 C 2.4894041,10.673852 2.2862608,8.3851962 2.2862608,8.3775513 c 0,-0.00576 0.00626,-0.00813 0.021461,-0.00813 h 0.02146 l 0.00339,0.029002 c 0.00186,0.015951 0.037023,0.4155634 0.078134,0.8880267 0.1007277,1.157595 0.2964839,3.398311 0.3203333,3.666683 0.010595,0.119227 0.019264,0.220528 0.019264,0.225115 0,0.0058 -0.00578,0.0083 -0.019335,0.0083 -0.015045,0 -0.019335,-0.0022 -0.019335,-0.0101 z"
     id="path1482"
     inkscape:connector-curvature="0" />
  <path
     style="fill:#f16528;fill-opacity:1;stroke:none;stroke-width:0.00552427;stroke-opacity:1"
     d=""
     id="path1484"
     inkscape:connector-curvature="0" />
  <path
     style="fill:#f16528;fill-opacity:1;stroke:none;stroke-width:0.00552427;stroke-opacity:1"
     d=""
     id="path1486"
     inkscape:connector-curvature="0" />
  <path
     style="fill:#f16528;fill-opacity:1;stroke:none;stroke-width:0.00552427;stroke-opacity:1"
     d="M 1.9805081,4.9291847 C 1.838742,3.3210845 1.8161621,3.0633142 1.7367386,2.1463328 1.698843,1.7088105 1.6664218,1.3388731 1.6646915,1.3242498 l -0.00315,-0.026588 0.020952,0.00173 0.020952,0.00173 0.031312,0.3480291 c 0.1044271,1.160705 0.1485529,1.6531197 0.197767,2.2069466 0.062369,0.7018685 0.1990523,2.2479261 0.1990523,2.2515348 0,0.0013 -0.010569,0.00237 -0.023488,0.00237 h -0.023488 z"
     id="path1488"
     inkscape:connector-curvature="0" />
  <path
     style="fill:#f16528;fill-opacity:1;stroke:none;stroke-width:0.00552427;stroke-opacity:1"
     d="M 1.664958,1.2931204 C 1.6631779,1.2902402 1.6457492,1.0994456 1.6262274,0.8691325 1.5758419,0.27469539 1.5735677,0.24412362 1.5741785,0.16944387 l 5.488e-4,-0.0670916 0.021367,0.14852049 c 0.011752,0.0816863 0.027604,0.21095424 0.035227,0.28726213 0.018506,0.18525065 0.069367,0.73422141 0.069367,0.74871891 0,0.00905 -0.00347,0.011503 -0.016247,0.011503 -0.00894,0 -0.017703,-0.00236 -0.019483,-0.00524 z"
     id="path1490"
     inkscape:connector-curvature="0" />
  <path
     style="fill:#f16528;fill-opacity:1;stroke:none;stroke-width:0.01104854;stroke-opacity:1"
     d="m 9.7802005,9.6624488 c 0.6552495,-0.00157 1.7241965,-0.00157 2.3754365,3e-7 0.651241,0.00157 0.115127,0.00286 -1.191363,0.00286 -1.3064905,-10e-8 -1.8393235,-0.00129 -1.1840735,-0.00286 z"
     id="path1492"
     inkscape:connector-curvature="0" />
  <path
     style="fill:#f16528;fill-opacity:1;stroke:none;stroke-width:0.01104854;stroke-opacity:1"
     d="m 8.8512398,9.6624582 c 0.1443216,-0.00174 0.3804842,-0.00174 0.5248058,0 0.1443216,0.00174 0.02624,0.00317 -0.2624029,0.00317 -0.2886432,0 -0.4067245,-0.00143 -0.2624029,-0.00317 z"
     id="path1494"
     inkscape:connector-curvature="0" />
  <path
     style="fill:#f16528;fill-opacity:1;stroke:none;stroke-width:0.00390625;stroke-opacity:1"
     d="M 8.601863,9.655795 C 8.6010354,9.6531094 8.5931083,9.6008145 8.5842473,9.539584 8.5753862,9.4783536 8.5612661,9.3813942 8.5528691,9.3241188 8.5235362,9.1240392 8.4897971,8.8038629 8.4533206,8.3794278 8.4414415,8.2412036 8.4200629,7.9708517 8.4200374,7.9585293 c -1.64e-5,-0.0079 0.00188,-0.00879 0.018848,-0.00879 h 0.018866 l 0.00467,0.053711 c 0.00901,0.1035828 0.043955,0.4619687 0.065228,0.6689453 0.020035,0.1949323 0.030028,0.2845974 0.084345,0.7568297 l 0.02078,0.1806578 0.011785,0.00164 c 0.00648,9.002e-4 0.5628595,0.00708 1.2363946,0.013736 0.673535,0.00665 1.264599,0.013191 1.313476,0.014526 l 0.08887,0.00243 v 0.00923 0.00923 H 9.943334 c -1.0685664,0 -1.3402711,-9.89e-4 -1.341471,-0.00488 z"
     id="path1504"
     inkscape:connector-curvature="0" />
  <path
     style="fill:#f16528;fill-opacity:1;stroke:none;stroke-width:0.00390625;stroke-opacity:1"
     d="m 8.4181065,7.9336407 c -0.00109,-0.00861 -0.014312,-0.1843955 -0.029374,-0.3906455 -0.015062,-0.20625 -0.028446,-0.3851075 -0.029742,-0.397461 l -0.00236,-0.022461 h 0.013981 c 0.011359,0 0.01432,0.00165 0.01579,0.00879 0.0021,0.010206 0.06892,0.7937022 0.06876,0.8062473 -9.07e-5,0.00711 -0.00278,0.00861 -0.017589,0.00979 l -0.017482,0.00139 z"
     id="path1506"
     inkscape:connector-curvature="0" />
  <path
     style="fill:#f16528;fill-opacity:1;stroke:none;stroke-width:0.00390625;stroke-opacity:1"
     d="m 5.859535,10.469753 c -8.408e-4,-0.0027 -0.00341,-0.02598 -0.00571,-0.05176 C 5.851525,10.392213 5.837355,10.236645 5.822337,10.07229 5.7862395,9.6772644 5.7646201,9.4300031 5.7128695,8.8203389 5.6667772,8.2773323 5.615486,7.6788922 5.5838827,7.3153835 5.5731859,7.1923455 5.5644339,7.0873162 5.5644339,7.081985 c 0,-0.00902 0.00135,-0.00969 0.019457,-0.00969 0.022221,0 0.021556,-0.00119 0.025145,0.044922 0.00117,0.015039 0.029367,0.3419922 0.06266,0.7265625 0.06691,0.7728913 0.1659432,1.9354553 0.1991537,2.3378905 0.01179,0.142871 0.022343,0.267236 0.023452,0.276367 l 0.00201,0.0166 h -0.017626 c -0.010681,0 -0.018228,-0.0019 -0.019155,-0.0049 z"
     id="path1508"
     inkscape:connector-curvature="0" />
  <path
     style="fill:#f16528;fill-opacity:1;stroke:none;stroke-width:0.00390625;stroke-opacity:1"
     d="M 9.9533475,23.372036 C 9.6420864,23.285086 9.1901625,23.157947 8.9103787,23.078621 l -0.2792968,-0.07919 0.00134,-0.02078 c 7.36e-4,-0.01143 0.00194,-0.02079 0.00267,-0.02079 7.31e-4,0 0.176789,0.04992 0.39124,0.110932 0.32673,0.09296 0.8217497,0.232923 1.0422551,0.294695 l 0.05469,0.01532 0.0012,0.02 c 6.49e-4,0.011 -2.3e-4,0.01991 -0.002,0.0198 -0.0017,-1.07e-4 -0.07784,-0.02106 -0.1691498,-0.04657 z"
     id="path1512"
     inkscape:connector-curvature="0" />
  <path
     style="fill:#f16528;fill-opacity:1;stroke:none;stroke-width:0.00390625;stroke-opacity:1"
     d="m 11.914285,23.888577 c -0.09246,-0.01018 -0.78494,-0.190917 -1.662109,-0.433816 l -0.125,-0.03461 -0.0012,-0.02054 c -0.0011,-0.01827 -4.13e-4,-0.0203 0.0059,-0.01838 0.02167,0.0066 0.237233,0.0656 0.356661,0.09755 0.605015,0.161877 1.146477,0.287173 1.337224,0.309439 0.04082,0.0048 0.06074,0.0051 0.107422,0.0016 0.201001,-0.01485 0.619061,-0.09357 1.006526,-0.189526 0.09443,-0.02339 0.287396,-0.07313 0.303477,-0.07824 0.0063,-0.002 0.0071,3.61e-4 0.0071,0.02135 v 0.02359 l -0.02051,0.0058 c -0.06099,0.01717 -0.452677,0.119083 -0.682618,0.177617 -0.282484,0.07191 -0.545009,0.131958 -0.603515,0.138047 -0.0086,8.94e-4 -0.02178,9.49e-4 -0.0293,1.21e-4 z"
     id="path1514"
     inkscape:connector-curvature="0" />
  <path
     style="fill:#f16528;fill-opacity:1;stroke:none;stroke-width:0.00390625;stroke-opacity:1"
     d="m 13.250222,23.544214 v -0.02355 l 0.01465,-0.0038 c 0.490637,-0.128221 1.684825,-0.458777 2.901367,-0.803109 0.246717,-0.06983 1.108357,-0.31529 1.139649,-0.324657 0.006,-0.0018 0.0068,0.0011 0.0068,0.02496 v 0.027 l -0.03027,0.0088 c -0.05804,0.01688 -0.898453,0.254928 -1.172325,0.332068 -0.948439,0.267142 -1.861158,0.518664 -2.55912,0.705228 -0.15791,0.04221 -0.290186,0.07762 -0.293946,0.07869 -0.006,0.0017 -0.0068,-10e-4 -0.0068,-0.02161 z"
     id="path1516"
     inkscape:connector-curvature="0" />
  <path
     style="fill:#f16528;fill-opacity:1;stroke:none;stroke-width:0.00390625;stroke-opacity:1"
     d="m 17.313529,22.414366 0.0011,-0.02776 0.33789,-0.09734 c 1.226377,-0.353281 2.121627,-0.618765 2.431997,-0.721204 0.119249,-0.03936 0.446299,-0.174495 0.451057,-0.186377 0.0017,-0.0043 0.01911,-0.195898 0.03864,-0.425781 0.01953,-0.229883 0.03643,-0.423682 0.03756,-0.430664 0.0019,-0.0119 0.003,-0.0127 0.01787,-0.0127 h 0.01583 l -0.0024,0.02246 c -0.0053,0.0493 -0.05055,0.607108 -0.05866,0.722811 -0.0047,0.06705 -0.0069,0.08209 -0.01441,0.09766 -0.02201,0.04578 -0.09102,0.09497 -0.207035,0.147584 -0.301007,0.136517 -0.919581,0.32922 -2.583493,0.804829 -0.251367,0.07185 -0.459305,0.131446 -0.462084,0.132434 -0.0039,0.0014 -0.0048,-0.0046 -0.0039,-0.02596 z"
     id="path1518"
     inkscape:connector-curvature="0" />
  <path
     style="fill:#f16528;fill-opacity:1;stroke:none;stroke-width:0.00390625;stroke-opacity:1"
     d="m 20.613504,20.507523 c 0,-0.0028 0.04834,-0.562652 0.107422,-1.244192 0.05908,-0.68154 0.107421,-1.241777 0.107421,-1.244972 0,-0.0042 0.0044,-0.0058 0.01563,-0.0058 0.0086,0 0.01563,9.38e-4 0.01563,0.0021 0,0.0011 -0.02984,0.346996 -0.0663,0.768555 -0.03647,0.421558 -0.0839,0.973891 -0.105406,1.227407 -0.02151,0.253515 -0.04013,0.470166 -0.0414,0.481445 l -0.0023,0.02051 h -0.01534 c -0.0099,0 -0.01534,-0.0018 -0.01534,-0.005 z"
     id="path1520"
     inkscape:connector-curvature="0" />
  <path
     style="fill:#f16528;fill-opacity:1;stroke:none;stroke-width:0.00390625;stroke-opacity:1"
     d="m 20.830966,17.992043 c 0.0011,-0.01128 0.06212,-0.713965 0.135537,-1.561524 l 0.133484,-1.541015 0.01652,-0.0012 c 0.0091,-6.61e-4 0.01652,-9.8e-5 0.01652,0.0012 0,0.0013 -0.03948,0.452768 -0.08774,1.003155 -0.04826,0.550386 -0.108903,1.245038 -0.134768,1.543671 -0.02587,0.298633 -0.04801,0.550439 -0.04922,0.55957 -0.0021,0.01629 -0.0025,0.0166 -0.01729,0.0166 h -0.0151 z"
     id="path1522"
     inkscape:connector-curvature="0" />
  <path
     style="fill:#f16528;fill-opacity:1;stroke:none;stroke-width:0.00390625;stroke-opacity:1"
     d="m 21.158205,14.214699 c 0.0012,-0.0091 0.06732,-0.771582 0.146887,-1.694336 0.07957,-0.922754 0.145515,-1.681689 0.14654,-1.686523 0.0016,-0.0077 0.0043,-0.0088 0.0216,-0.0088 h 0.01974 l -0.0024,0.02051 c -0.003,0.02555 -0.298969,3.375291 -0.298969,3.383208 0,0.0014 -0.008,0.0025 -0.01782,0.0025 h -0.01782 z"
     id="path1524"
     inkscape:connector-curvature="0" />
  <path
     style="fill:#f16528;fill-opacity:1;stroke:none;stroke-width:0.00390625;stroke-opacity:1"
     d="m 21.455615,10.781105 c 9.77e-4,-0.007 0.06676,-0.765918 0.146192,-1.6865231 0.07943,-0.9206054 0.145424,-1.6812988 0.146656,-1.6904296 l 0.0022,-0.016602 h 0.02283 0.02283 l -0.0017,0.014648 c -9.56e-4,0.00806 -0.02983,0.3345703 -0.06417,0.725586 -0.03434,0.3910156 -0.101064,1.1473229 -0.148281,1.6806828 -0.04722,0.5333599 -0.08585,0.9732519 -0.08585,0.9775389 0,0.0068 -0.0026,0.0078 -0.02124,0.0078 h -0.02124 z"
     id="path1526"
     inkscape:connector-curvature="0" />
  <path
     style="fill:#f16528;fill-opacity:1;stroke:none;stroke-width:0.00390625;stroke-opacity:1"
     d="m 21.750222,7.3836509 c 0,-0.00214 0.05449,-0.6330043 0.121094,-1.4019099 0.0666,-0.7689055 0.121094,-1.3999632 0.121094,-1.4023502 0,-0.00274 0.0094,-0.00434 0.02563,-0.00434 h 0.02563 l -0.0023,0.016602 c -0.0012,0.00913 -0.0092,0.097461 -0.01775,0.196289 -0.01972,0.2287672 -0.167798,1.9197158 -0.201243,2.2981231 -0.01392,0.1575223 -0.02531,0.2897977 -0.02531,0.2939453 0,0.00661 -0.0029,0.00754 -0.02344,0.00754 -0.013,0 -0.02344,-0.00174 -0.02344,-0.0039 z"
     id="path1528"
     inkscape:connector-curvature="0" />
  <path
     style="fill:#f16528;fill-opacity:1;stroke:none;stroke-width:0.00390625;stroke-opacity:1"
     d="m 21.994582,4.5584491 c 0.0011,-0.00913 0.02396,-0.2706054 0.05077,-0.5810547 0.02681,-0.3104492 0.07509,-0.864345 0.107277,-1.2308795 0.03219,-0.3665346 0.05853,-0.66756 0.05853,-0.6689454 0,-0.00139 0.01055,-0.00252 0.02344,-0.00252 0.02,0 0.02344,0.00104 0.02344,0.00706 0,0.00807 -0.08909,1.0404957 -0.164102,1.9016628 -0.02791,0.3204021 -0.05074,0.5845134 -0.05074,0.5869141 0,0.00277 -0.0093,0.00436 -0.02532,0.00436 h -0.02532 z"
     id="path1530"
     inkscape:connector-curvature="0" />
  <path
     style="fill:#f16528;fill-opacity:1;stroke:none;stroke-width:0.00390625;stroke-opacity:1"
     d="m 22.212777,2.056496 c 0.0013,-0.010205 0.02435,-0.2664062 0.05125,-0.5693359 0.07716,-0.8691339 0.134098,-1.46067416 0.142508,-1.48046878 0.0019,-0.00451064 0.0034,0.04810288 0.0036,0.12448834 3.3e-4,0.16480889 0.0059,0.0906611 -0.120854,1.59621474 -0.01529,0.181543 -0.0286,0.3340332 -0.02959,0.3388672 -0.0016,0.00795 -0.004,0.00879 -0.02552,0.00879 h -0.02373 z"
     id="path1532"
     inkscape:connector-curvature="0" />
  <path
     style="fill:#f16528;fill-opacity:1;stroke:none;stroke-width:0.00390625;stroke-opacity:1"
     d="m 18.075742,9.7541585 c -0.0254,-0.011307 -0.08474,-0.025994 -0.13813,-0.034189 l -0.04872,-0.00748 0.10003,-3.608e-4 0.100029,-3.608e-4 0.0025,0.024081 c 0.0014,0.013245 0.0021,0.024412 0.0015,0.024817 -5.41e-4,4.049e-4 -0.0083,-0.00252 -0.01726,-0.00651 z"
     id="path1534"
     inkscape:connector-curvature="0" />
  <path
     style="fill:#f16528;fill-opacity:1;stroke:none;stroke-width:0.00390625;stroke-opacity:1"
     d="m 17.818625,13.591652 c 0.0023,-0.01602 0.09804,-1.073668 0.154103,-1.702148 0.04292,-0.481066 0.07377,-0.832539 0.122946,-1.400391 0.01638,-0.189113 0.01741,-0.150712 0.0023,0.08611 -0.03501,0.549589 -0.102948,1.400659 -0.205308,2.572093 -0.03889,0.445099 -0.03678,0.421319 -0.03935,0.442383 l -0.002,0.0166 h -0.01739 -0.01739 z"
     id="path1536"
     inkscape:connector-curvature="0" />
  <path
     style="fill:#f16528;fill-opacity:1;stroke:none;stroke-width:0.00390625;stroke-opacity:1"
     d="m 17.404495,17.938332 c 0.02108,-0.180852 0.05335,-0.497889 0.103367,-1.015625 0.02515,-0.260322 0.0948,-0.995363 0.09994,-1.054688 0.0037,-0.04283 0.0038,-0.04297 0.02141,-0.04297 0.0086,0 0.01555,0.0018 0.01555,0.0039 0,0.01515 -0.07333,0.745626 -0.105678,1.052735 -0.06445,0.611843 -0.116302,1.027791 -0.132832,1.065545 -0.0029,0.0067 -0.0033,0.0046 -0.0017,-0.0089 z"
     id="path1538"
     inkscape:connector-curvature="0" />
  <path
     style="fill:#f16528;fill-opacity:1;stroke:none;stroke-width:0.00390625;stroke-opacity:1"
     d="m 14.613504,18.723488 c 0,-0.01074 9e-4,-0.01953 0.002,-0.01953 0.0091,0 2.652208,-0.708445 2.741416,-0.734804 0.01464,-0.0043 0.0287,-0.0071 0.03125,-0.0063 0.01887,0.0065 -0.589453,0.183815 -1.391855,0.405719 -0.44995,0.124434 -1.370663,0.37442 -1.37901,0.37442 -0.0021,0 -0.0038,-0.0088 -0.0038,-0.01953 z"
     id="path1540"
     inkscape:connector-curvature="0" />
  <path
     style="fill:#f16528;fill-opacity:1;stroke:none;stroke-width:0.00390625;stroke-opacity:1"
     d="m 11.940461,19.404846 c -0.06164,-0.01405 -0.692973,-0.172675 -0.911615,-0.229045 l -0.185051,-0.04771 -4.95e-4,-0.02051 c -2.73e-4,-0.01128 -9.2e-5,-0.02051 4.01e-4,-0.02051 4.93e-4,2e-6 0.09542,0.02355 0.210938,0.05233 0.607935,0.15146 0.988557,0.240639 1.027067,0.240639 0.0065,0 0.05645,-0.0122 0.111046,-0.0271 0.193923,-0.05294 1.277124,-0.343028 2.042631,-0.547025 0.194433,-0.05181 0.358789,-0.09562 0.365234,-0.09735 l 0.01172,-0.0031 v 0.01987 0.01988 l -0.179688,0.04796 c -1.306865,0.348838 -2.385884,0.623634 -2.441406,0.621758 -0.0043,-1.45e-4 -0.02715,-0.0047 -0.05078,-0.01006 z"
     id="path1542"
     inkscape:connector-curvature="0" />
  <path
     style="fill:#f16528;fill-opacity:1;stroke:none;stroke-width:0.0078125;stroke-opacity:1"
     d="m 3.2881809,19.628918 c 0,-0.0036 -0.00879,-0.104017 -0.019531,-0.223155 -0.010742,-0.119138 -0.019531,-0.224692 -0.019531,-0.234564 0,-0.01493 0.00328,-0.01732 0.019531,-0.01422 0.011884,0.0023 0.019531,0.009 0.019531,0.01727 0,0.0074 0.00877,0.106353 0.019494,0.219792 0.024278,0.256861 0.024275,0.241409 3.68e-5,0.241409 -0.010742,0 -0.019531,-0.0029 -0.019531,-0.0065 z"
     id="path1544"
     inkscape:connector-curvature="0" />
  <path
     style="fill:#f16528;fill-opacity:1;stroke:none;stroke-width:0.0078125;stroke-opacity:1"
     d=""
     id="path1546"
     inkscape:connector-curvature="0" />
  <path
     style="fill:#f16528;fill-opacity:1;stroke:none;stroke-width:0.0078125;stroke-opacity:1"
     d="m 2.8160202,14.321004 c -0.00318,-0.01063 -0.098599,-1.094842 -0.098322,-1.117187 1.031e-4,-0.0083 0.00617,-0.01367 0.015441,-0.01367 0.011176,0 0.016374,0.0068 0.019385,0.02539 0.00342,0.0211 0.098156,1.09203 0.098156,1.109577 0,0.0098 -0.031607,0.0061 -0.034661,-0.0041 z"
     id="path1548"
     inkscape:connector-curvature="0" />
  <path
     style="fill:#f16528;fill-opacity:1;stroke:none;stroke-width:0.0078125;stroke-opacity:1"
     d="M 2.2849144,8.3522545 C 2.2829541,8.3425865 2.2722783,8.2292076 2.2611904,8.1003013 2.2232321,7.6590025 2.0934669,6.1940955 2.0886967,6.1530357 l -0.00477,-0.041016 h 0.024 c 0.0132,0 0.024,0.00193 0.024,0.00428 0,0.00493 0.1850452,2.1212186 0.1924346,2.2007976 l 0.0049,0.052734 h -0.020392 c -0.014883,0 -0.021355,-0.00475 -0.023956,-0.017578 z"
     id="path1550"
     inkscape:connector-curvature="0" />
  <path
     style="fill:#f16528;fill-opacity:1;stroke:none;stroke-width:0.0078125;stroke-opacity:1"
     d="m 5.5616184,7.0545604 c 0,-0.02073 -0.066497,-0.7747091 -0.1255014,-1.4230091 C 5.4146078,5.3952232 5.3778086,5.022567 5.354341,4.8034263 5.3308734,4.5842857 5.3116605,4.3988365 5.3116455,4.391317 c -1.58e-5,-0.00797 0.00584,-0.013672 0.014034,-0.013672 0.012437,0 0.01698,0.02144 0.039317,0.1855469 0.01389,0.1020507 0.032086,0.2523437 0.040434,0.3339843 0.028549,0.2791887 0.1952502,2.124694 0.1952502,2.1615657 0,0.00996 -0.00585,0.014216 -0.019531,0.014216 -0.015304,0 -0.019531,-0.00398 -0.019531,-0.018397 z"
     id="path1552"
     inkscape:connector-curvature="0" />
  <path
     style="fill:#f16528;fill-opacity:1;stroke:none;stroke-width:0.0078125;stroke-opacity:1"
     d="m 14.952243,7.1014342 c 0,-0.011355 0.29268,-0.0144 2.470564,-0.025702 l 0.974469,-0.00506 0.0038,-0.024249 c 0.0021,-0.013337 0.01273,-0.1226869 0.02359,-0.2429994 0.02452,-0.2716743 0.158971,-1.7194469 0.195684,-2.1070756 0.01494,-0.1577197 0.02716,-0.2939502 0.02716,-0.3027343 0,-0.00899 0.0051,-0.015971 0.01172,-0.015971 0.0081,0 0.01172,0.00812 0.01172,0.026225 0,0.028584 -0.06386,0.7811228 -0.101862,1.2003377 -0.03012,0.332311 -0.08511,0.8898217 -0.120591,1.2226562 -0.01512,0.1417969 -0.0275,0.2639649 -0.02752,0.2714844 -3e-5,0.01298 -0.08784,0.013672 -1.734407,0.013672 -1.453964,0 -1.734375,-0.00171 -1.734375,-0.010586 z"
     id="path1554"
     inkscape:connector-curvature="0" />
  <path
     style="fill:#f16528;fill-opacity:1;stroke:none;stroke-width:0.0078125;stroke-opacity:1"
     d="m 9.9535376,7.1159342 c 0.00514,-0.00514 8.4609664,-0.00519 8.4661024,-5.87e-5 0.0022,0.00218 -1.902683,0.00396 -4.233022,0.00396 -2.330338,0 -4.2352245,-0.00175 -4.2330804,-0.0039 z"
     id="path1556"
     inkscape:connector-curvature="0" />
  <path
     style="fill:#f16528;fill-opacity:1;stroke:none;stroke-width:0.0078125;stroke-opacity:1"
     d="m 12.33115,7.1038932 c 2.045629,-0.011061 2.671225,-0.013325 2.644531,-0.00957 -0.02313,0.00325 -0.02494,0.00483 -0.01172,0.010223 0.0086,0.00351 -0.807031,0.00602 -1.8125,0.00559 -1.705968,-7.367e-4 -1.760782,-0.00115 -0.820312,-0.00624 z"
     id="path1558"
     inkscape:connector-curvature="0" />
  <path
     style="fill:#f16528;fill-opacity:1;stroke:none;stroke-width:0.0078125;stroke-opacity:1"
     d="m 15.005466,7.0910583 c 0.0056,-0.00226 0.01238,-0.00198 0.01497,6.167e-4 0.0026,0.0026 -0.002,0.00444 -0.01025,0.0041 -0.0091,-3.749e-4 -0.01095,-0.00223 -0.0047,-0.00472 z"
     id="path1560"
     inkscape:connector-curvature="0" />
  <path
     style="fill:#f16528;fill-opacity:1;stroke:none;stroke-width:0.0078125;stroke-opacity:1"
     d="m 5.9736377,11.596395 c -0.012613,-0.118144 -0.091385,-0.901776 -0.1058231,-1.052734 -0.00596,-0.06236 -0.00563,-0.06445 0.010367,-0.06445 0.018385,0 0.012014,-0.06333 0.086051,0.855468 0.0287,0.356166 0.033374,0.486235 0.0094,0.261719 z"
     id="path1562"
     inkscape:connector-curvature="0" />
  <path
     style="fill:#f16528;fill-opacity:1;stroke:none;stroke-width:0.0078125;stroke-opacity:1"
     d="m 11.288181,9.6505229 c 0,-0.00593 0.180579,-0.00677 0.61914,-0.00288 0.340528,0.00302 0.620606,0.00679 0.622396,0.00837 0.0018,0.00158 -0.276823,0.00288 -0.61914,0.00288 -0.437459,0 -0.622396,-0.00249 -0.622396,-0.00837 z"
     id="path1564"
     inkscape:connector-curvature="0" />
  <path
     style="fill:#f16528;fill-opacity:1;stroke:none;stroke-width:0.0078125;stroke-opacity:1"
     d="m 11.360013,9.6608822 c 0.04595,-0.00138 0.123297,-0.00138 0.171875,-1.07e-5 0.04858,0.00137 0.01098,0.0025 -0.08355,0.00251 -0.09453,5.9e-6 -0.134277,-0.00112 -0.08832,-0.0025 z"
     id="path1568"
     inkscape:connector-curvature="0" />
  <path
     style="fill:#f16528;fill-opacity:1;stroke:none;stroke-width:0.0078125;stroke-opacity:1"
     d=""
     id="path1570"
     inkscape:connector-curvature="0" />
  <path
     style="fill:#fff000;fill-opacity:0.96174866;stroke:none;stroke-width:0.0078125;stroke-opacity:1"
     d="m 17.616306,15.810581 c 0,-0.0068 0.02979,-0.332881 0.0662,-0.724609 0.03641,-0.391728 0.08034,-0.868678 0.09763,-1.059889 0.0395,-0.436973 0.0364,-0.414063 0.05596,-0.414063 0.01434,0 0.0153,0.0036 0.011,0.04102 -0.0026,0.02256 -0.02935,0.311718 -0.05946,0.642578 -0.03011,0.330859 -0.07395,0.801891 -0.09742,1.046738 -0.02347,0.244846 -0.04266,0.453147 -0.04266,0.46289 0,0.01251 -0.0046,0.01772 -0.01563,0.01772 -0.0091,0 -0.01563,-0.0052 -0.01563,-0.01238 z"
     id="path1572"
     inkscape:connector-curvature="0" />
  <path
     style="fill:#ffffff;fill-opacity:1;stroke:none;stroke-width:0.02209709;stroke-opacity:1"
     d="M 9.2928761,18.619786 C 7.8162383,18.223772 6.6032535,17.895742 6.5973543,17.890831 6.5867641,17.882013 6.2683859,13.944465 6.2665325,13.799385 l -9.573e-4,-0.07493 1.1214272,0.0129 c 1.0459282,0.01203 1.4006634,0.03171 1.4493614,0.08041 0.010745,0.01075 0.05957,0.47036 0.1085015,1.021366 0.048931,0.551007 0.090394,1.003807 0.09214,1.006223 0.00175,0.0024 0.6695561,0.1869 1.4840227,0.409963 l 1.480848,0.40557 1.452534,-0.40146 c 0.798894,-0.220803 1.455825,-0.405286 1.459847,-0.409963 0.0085,-0.0098 0.323407,-3.32012 0.323004,-3.394881 l -2.69e-4,-0.04972 H 10.673944 6.1108956 v -0.04732 c 0,-0.02603 -0.1044087,-1.244371 -0.2320194,-2.7074347 C 5.7512655,8.1870433 5.6468568,6.9604036 5.6468568,6.9242412 v -0.06575 h 6.3529122 6.352913 v 0.083524 0.083524 l -5.027088,-0.00885 -5.0270868,-0.00885 4.42e-5,0.074483 c 2.21e-5,0.040966 0.049681,0.6512169 0.1103363,1.3561139 0.060655,0.7048971 0.1103489,1.2890663 0.1104311,1.2981537 8.84e-5,0.00909 2.1504722,0.019031 4.7786442,0.022097 l 4.778505,0.00557 0.0073,0.1104855 c 0.004,0.060767 -0.155057,1.8913177 -0.353435,4.0678907 l -0.360688,3.957404 -2.651769,0.711322 c -1.458473,0.391228 -2.671656,0.715176 -2.695963,0.719887 -0.02431,0.0047 -1.252352,-0.315448 -2.7289899,-0.711461 z"
     id="path1576"
     inkscape:connector-curvature="0" />
  <path
     style="fill:#ffffff;fill-opacity:1;stroke:none;stroke-width:0.02209709;stroke-opacity:1"
     d="M 11.756701,19.278187 C 11.635167,19.243726 10.427009,18.919488 9.0719053,18.557659 7.7168014,18.195829 6.6028231,17.891962 6.596398,17.882399 6.5861806,17.867191 6.2620177,13.835113 6.2645871,13.755191 c 8.361e-4,-0.02601 0.1734696,-0.02875 1.1224153,-0.01784 1.0473467,0.01205 1.4006512,0.0317 1.4495824,0.08063 0.010866,0.01087 0.060172,0.471766 0.1095677,1.024221 l 0.089811,1.004465 1.4598055,0.40048 c 0.802894,0.220264 1.480445,0.400451 1.505671,0.400416 0.04395,-6.6e-5 2.901223,-0.783757 2.913567,-0.799138 0.007,-0.0088 0.323369,-3.347981 0.322545,-3.404896 -5.31e-4,-0.0367 -0.232792,-0.03867 -4.563608,-0.03867 -4.385451,0 -4.5630484,-0.0016 -4.5630484,-0.03992 0,-0.02196 -0.1044087,-1.239384 -0.2320194,-2.7053963 C 5.7512655,8.1935313 5.6468568,6.9635622 5.6468568,6.926279 V 6.858491 h 6.3529122 6.352913 V 6.942015 7.025539 L 13.325594,7.016689 8.2985072,7.007839 v 0.065465 c 0,0.036006 0.049673,0.6462569 0.1103838,1.356114 0.060711,0.7098571 0.1104293,1.2980844 0.1104854,1.3071718 6.63e-5,0.00909 2.1504246,0.019031 4.7785966,0.022097 l 4.778495,0.00557 0.0074,0.1104855 c 0.0041,0.060767 -0.154873,1.8915447 -0.353185,4.0683947 l -0.360566,3.957908 -2.652019,0.711082 c -1.45861,0.391095 -2.671906,0.71505 -2.696213,0.719899 -0.02431,0.0048 -0.143631,-0.01938 -0.265165,-0.05384 z"
     id="path1578"
     inkscape:connector-curvature="0" />
</svg>
