<?xml version="1.0" encoding="UTF-8" standalone="no"?>
<svg
   xmlns:dc="http://purl.org/dc/elements/1.1/"
   xmlns:cc="http://creativecommons.org/ns#"
   xmlns:rdf="http://www.w3.org/1999/02/22-rdf-syntax-ns#"
   xmlns:svg="http://www.w3.org/2000/svg"
   xmlns="http://www.w3.org/2000/svg"
   xmlns:sodipodi="http://sodipodi.sourceforge.net/DTD/sodipodi-0.dtd"
   xmlns:inkscape="http://www.inkscape.org/namespaces/inkscape"
   role="img"
   viewBox="0 0 24 24"
   version="1.1"
   id="svg860"
   sodipodi:docname="javascript.svg"
   inkscape:version="0.92.4 5da689c313, 2019-01-14">
  <metadata
     id="metadata866">
    <rdf:RDF>
      <cc:Work
         rdf:about="">
        <dc:format>image/svg+xml</dc:format>
        <dc:type
           rdf:resource="http://purl.org/dc/dcmitype/StillImage" />
      </cc:Work>
    </rdf:RDF>
  </metadata>
  <defs
     id="defs864" />
  <sodipodi:namedview
     pagecolor="#ffffff"
     bordercolor="#666666"
     borderopacity="1"
     objecttolerance="10"
     gridtolerance="10"
     guidetolerance="10"
     inkscape:pageopacity="0"
     inkscape:pageshadow="2"
     inkscape:window-width="1366"
     inkscape:window-height="712"
     id="namedview862"
     showgrid="false"
     inkscape:zoom="21.875"
     inkscape:cx="12.045714"
     inkscape:cy="12"
     inkscape:window-x="0"
     inkscape:window-y="28"
     inkscape:window-maximized="1"
     inkscape:current-layer="svg860" />
  <title
     id="title856">JavaScript icon</title>
  <path
     d="M0 0h24v24H0V0zm22.034 18.276c-.175-1.095-.888-2.015-3.003-2.873-.736-.345-1.554-.585-1.797-1.14-.091-.33-.105-.51-.046-.705.15-.646.915-.84 1.515-.66.39.12.75.42.976.9 1.034-.676 1.034-.676 1.755-1.125-.27-.42-.404-.601-.586-.78-.63-.705-1.469-1.065-2.834-1.034l-.705.089c-.676.165-1.32.525-1.71 1.005-1.14 1.291-.811 3.541.569 4.471 1.365 1.02 3.361 1.244 3.616 2.205.24 1.17-.87 1.545-1.966 1.41-.811-.18-1.26-.586-1.755-1.336l-1.83 1.051c.21.48.45.689.81 1.109 1.74 1.756 6.09 1.666 6.871-1.004.029-.09.24-.705.074-1.65l.046.067zm-8.983-7.245h-2.248c0 1.938-.009 3.864-.009 5.805 0 1.232.063 2.363-.138 2.711-.33.689-1.18.601-1.566.48-.396-.196-.597-.466-.83-.855-.063-.105-.11-.196-.127-.196l-1.825 1.125c.305.63.75 1.172 1.324 1.517.855.51 2.004.675 3.207.405.783-.226 1.458-.691 1.811-1.411.51-.93.402-2.07.397-3.346.012-2.054 0-4.109 0-6.179l.004-.056z"
     id="path858" />
  <path
     style="fill:#f7df1d;fill-opacity:0.98342544;stroke:none;stroke-width:0.04571429;stroke-opacity:1"
     d="M 0.04114286,12 V 0.02285714 H 12.018286 23.995429 V 12 23.977143 H 12.018286 0.04114286 Z M 10.509714,22.096624 c 1.206483,-0.173719 2.093466,-0.968005 2.436482,-2.181851 0.09736,-0.344522 0.09882,-0.404752 0.112844,-4.634773 l 0.01421,-4.285714 h -1.142584 -1.142585 l -0.01347,4.128999 -0.01347,4.128999 -0.137843,0.269478 C 10.441732,19.87672 10.181589,20.045886 9.766,20.079246 9.1664869,20.127369 8.7365189,19.883002 8.3586139,19.279374 8.2525787,19.110004 8.1603963,18.964912 8.1537637,18.956948 c -0.024333,-0.02922 -1.8472906,1.113147 -1.8485066,1.158378 -0.00358,0.133218 0.3880832,0.685884 0.7323973,1.033463 0.3302107,0.333343 0.457781,0.426825 0.8228571,0.602978 0.8176631,0.394532 1.5983891,0.496162 2.6492025,0.344857 z m 8.577664,-0.08895 c 1.730085,-0.240633 2.858566,-1.321432 2.969426,-2.843957 0.07496,-1.02948 -0.15322,-1.743092 -0.762429,-2.38443 -0.534335,-0.562515 -1.135006,-0.916257 -2.761804,-1.626453 -1.085374,-0.473832 -1.347547,-0.74104 -1.348316,-1.37421 -3.66e-4,-0.298857 0.161146,-0.581062 0.426668,-0.745518 0.278979,-0.17279 0.767006,-0.21565 1.120103,-0.09837 0.265921,0.08832 0.647289,0.407588 0.829161,0.694134 l 0.119873,0.188867 0.876042,-0.554581 c 0.481824,-0.305019 0.876782,-0.57179 0.877685,-0.592824 9.05e-4,-0.02103 -0.104788,-0.192199 -0.234869,-0.380367 -0.323275,-0.467635 -0.751625,-0.848908 -1.201195,-1.069182 -0.603777,-0.29583 -0.843122,-0.341164 -1.785152,-0.33812 -0.775716,0.0025 -0.843808,0.0099 -1.188571,0.128743 -0.543216,0.18728 -0.921973,0.417296 -1.282981,0.779148 -0.361871,0.362715 -0.55598,0.674768 -0.713228,1.146593 -0.09065,0.272004 -0.106648,0.412564 -0.106648,0.937143 0,0.520026 0.01688,0.670914 0.107294,0.958847 0.365276,1.16331 1.004877,1.727163 2.871818,2.531704 1.298619,0.559628 1.632396,0.772279 1.804172,1.149449 0.102563,0.225197 0.108692,0.56405 0.01429,0.790039 -0.349719,0.837201 -1.900205,0.999024 -2.828978,0.295259 C 16.682651,19.44267 16.299248,19.026183 16.13257,18.777084 L 16.064,18.6746 15.158043,19.195638 c -0.498277,0.286572 -0.916284,0.531365 -0.928904,0.543985 -0.09738,0.09738 0.69856,1.096545 1.138776,1.429544 0.515388,0.389862 1.376843,0.731186 2.113228,0.837302 0.399629,0.05759 1.196542,0.05818 1.606235,0.0012 z"
     id="path868"
     inkscape:connector-curvature="0" />
</svg>
