<?xml version="1.0" encoding="UTF-8" standalone="no"?>
<svg
   xmlns:dc="http://purl.org/dc/elements/1.1/"
   xmlns:cc="http://creativecommons.org/ns#"
   xmlns:rdf="http://www.w3.org/1999/02/22-rdf-syntax-ns#"
   xmlns:svg="http://www.w3.org/2000/svg"
   xmlns="http://www.w3.org/2000/svg"
   xmlns:sodipodi="http://sodipodi.sourceforge.net/DTD/sodipodi-0.dtd"
   xmlns:inkscape="http://www.inkscape.org/namespaces/inkscape"
   role="img"
   viewBox="0 0 24 24"
   version="1.1"
   id="svg915"
   sodipodi:docname="laravel.svg"
   inkscape:version="0.92.4 5da689c313, 2019-01-14">
  <metadata
     id="metadata921">
    <rdf:RDF>
      <cc:Work
         rdf:about="">
        <dc:format>image/svg+xml</dc:format>
        <dc:type
           rdf:resource="http://purl.org/dc/dcmitype/StillImage" />
      </cc:Work>
    </rdf:RDF>
  </metadata>
  <defs
     id="defs919" />
  <sodipodi:namedview
     pagecolor="#ffffff"
     bordercolor="#666666"
     borderopacity="1"
     objecttolerance="10"
     gridtolerance="10"
     guidetolerance="10"
     inkscape:pageopacity="0"
     inkscape:pageshadow="2"
     inkscape:window-width="1366"
     inkscape:window-height="712"
     id="namedview917"
     showgrid="false"
     inkscape:zoom="19.666667"
     inkscape:cx="17.497274"
     inkscape:cy="15.208412"
     inkscape:window-x="0"
     inkscape:window-y="28"
     inkscape:window-maximized="1"
     inkscape:current-layer="svg915" />
  <title
     id="title911">Laravel icon</title>
  <path
     d="M23.644 5.43c.009.032.014.065.014.099v5.15c0 .135-.073.26-.189.326l-4.323 2.49v4.934c0 .135-.072.258-.188.326L9.931 23.95c-.021.012-.043.02-.066.027-.008.002-.016.008-.024.01-.063.018-.13.018-.192 0-.011-.002-.02-.008-.029-.012-.021-.008-.043-.014-.063-.025L.534 18.755c-.117-.068-.189-.191-.189-.326V2.974c0-.033.005-.066.014-.098.003-.012.01-.021.014-.032.006-.02.014-.04.023-.058.004-.013.015-.022.023-.033.012-.016.021-.031.033-.045.012-.01.025-.018.037-.027.014-.012.027-.024.041-.034h.001L5.044.05c.115-.067.259-.067.375 0l4.512 2.597h.002c.015.01.027.021.041.033.012.009.025.018.037.027.013.014.021.029.033.045.008.011.02.021.025.033.011.019.017.038.024.058.003.011.011.021.013.032.01.031.014.064.014.098v9.652l3.76-2.164V5.527c0-.033.005-.066.014-.098.003-.011.009-.021.013-.032.007-.02.014-.039.024-.059.007-.012.018-.021.025-.033.012-.015.021-.03.033-.043.012-.012.025-.02.037-.028.014-.011.026-.023.041-.032h.001l4.513-2.598c.116-.067.259-.067.375 0l4.513 2.598c.016.01.027.021.042.031.012.01.025.018.036.028.013.014.022.029.034.044.008.012.019.021.024.033.011.02.018.039.024.059.006.011.012.022.015.033zm-.74 5.032V6.179l-1.578.908-2.182 1.256v4.283l3.76-2.164zm-4.511 7.75v-4.287l-2.146 1.225-6.127 3.498v4.326l8.273-4.762zM1.095 3.624v14.588l8.273 4.762v-4.326l-4.322-2.445-.002-.003h-.002c-.014-.01-.025-.021-.04-.031-.011-.01-.024-.018-.035-.027l-.001-.002c-.013-.012-.021-.025-.031-.039-.01-.012-.021-.023-.028-.037h-.002c-.008-.014-.013-.031-.02-.047-.006-.016-.014-.027-.018-.043-.004-.018-.006-.037-.008-.057-.002-.014-.006-.027-.006-.041V5.789l-2.18-1.257-1.578-.908zM5.231.81l-3.76 2.164 3.76 2.164 3.758-2.164L5.231.81zm1.956 13.505l2.182-1.256V3.624l-1.58.909-2.182 1.256v9.435l1.58-.909zM18.769 3.364l-3.76 2.164 3.76 2.163 3.759-2.164-3.759-2.163zm-.376 4.979l-2.182-1.256-1.579-.908v4.283l2.182 1.256 1.579.908V8.343zm-8.65 9.654l5.514-3.148 2.756-1.572-3.757-2.163-4.324 2.489-3.941 2.27 3.752 2.124z"
     id="path913" />
  <path
     style="fill:#ff2d20;fill-opacity:0.95580113;stroke:none;stroke-width:0.05084746;stroke-opacity:1"
     d="M 9.5904944,23.923116 C 9.2521336,23.772544 0.4930629,18.697584 0.43137198,18.616367 0.3437964,18.501073 0.32878316,3.0211179 0.41606113,2.8295636 0.48199645,2.6848514 4.976919,0.08019934 5.2040031,0.05511691 5.3180114,0.04252421 5.8486849,0.32562639 7.6228168,1.3454992 8.872836,2.064082 9.9356216,2.686964 9.9845622,2.7296813 c 0.083591,0.072961 0.088983,0.3740314 0.088983,4.9680923 0,2.6897334 0.01303,4.9034524 0.02895,4.9193764 0.01592,0.01592 0.873532,-0.455051 1.905797,-1.04661 l 1.876845,-1.075562 0.0017,-2.4915257 c 0.0013,-1.8783824 0.01725,-2.5221783 0.06477,-2.6160849 0.07509,-0.1483902 4.620272,-2.7929721 4.806755,-2.7967795 0.14138,-0.00289 4.614515,2.5502598 4.777015,2.7265932 l 0.114407,0.1241456 v 2.6689673 2.668967 l -0.114407,0.113286 c -0.06292,0.06231 -1.081144,0.669579 -2.262712,1.349492 l -2.148305,1.236206 v 2.541875 2.541875 l -0.114407,0.100904 c -0.114085,0.10062 -9.1848654,5.333868 -9.2386346,5.330089 -0.015573,-0.0011 -0.096958,-0.03254 -0.1808562,-0.06987 z M 9.4003626,20.804763 9.3871046,18.631497 7.1854132,17.384164 C 5.9744831,16.698131 4.9623333,16.103007 4.9361918,16.061667 4.9075785,16.016418 4.8875675,13.952679 4.8859121,10.876334 L 4.8831624,5.7661641 3.0228747,4.6983675 C 1.9997165,4.1110794 1.1425526,3.6229438 1.1180661,3.6136218 1.092731,3.6039767 1.0735453,6.7493221 1.0735453,10.912439 v 7.315767 l 4.1059322,2.37036 c 2.2582627,1.303697 4.1347795,2.372407 4.1700376,2.374911 0.050838,0.0036 0.061361,-0.44522 0.050847,-2.168714 z m 4.9126584,-0.21325 4.099507,-2.361093 v -2.151619 c 0,-1.183391 -0.01716,-2.151596 -0.03813,-2.151567 -0.02097,2.9e-5 -1.891526,1.059087 -4.15678,2.353461 l -4.118644,2.353409 -0.01326,2.175796 c -0.01118,1.834266 -0.0022,2.1732 0.05727,2.159251 0.03879,-0.0091 1.915311,-1.079038 4.170041,-2.377638 z M 13.93701,15.63301 c 2.237806,-1.276624 4.068689,-2.33714 4.068628,-2.356702 -1.02e-4,-0.02886 -1.160307,-0.707781 -3.510419,-2.054186 l -0.239588,-0.137263 -4.112229,2.366455 c -2.2617264,1.30155 -4.1283671,2.381659 -4.1480903,2.400242 -0.055013,0.05183 3.6830726,2.150212 3.7849185,2.124669 0.048422,-0.01215 1.9189728,-1.066591 4.1567798,-2.343215 z M 7.7854097,13.999761 9.3871046,13.076329 9.4000783,8.3407382 c 0.00714,-2.6045751 -0.00147,-4.735591 -0.019126,-4.735591 -0.017655,0 -0.8758241,0.485869 -1.9070416,1.0797088 L 5.598969,5.764565 v 4.746056 4.746057 L 5.8913419,15.089936 C 6.052147,14.998227 6.9044775,14.507649 7.7854097,13.999761 Z M 18.349529,8.3038977 C 18.314264,8.270766 17.461681,7.7716448 16.454901,7.1947392 l -1.830508,-1.0489195 -0.01327,2.1460536 c -0.0073,1.1803291 0.0046,2.1639237 0.02644,2.1857637 0.02184,0.02184 0.874422,0.519981 1.894627,1.106978 l 1.854917,1.067268 0.01327,-2.143874 c 0.01036,-1.6732481 -8.03e-4,-2.1570962 -0.05085,-2.2041113 z m 2.935807,3.1189323 c 0.866909,-0.499052 1.593644,-0.924813 1.614967,-0.946135 0.02132,-0.02132 0.0328,-1.0045983 0.0255,-2.1850566 l -0.01327,-2.1462885 -1.881356,1.0826995 -1.881356,1.0827 -0.01326,2.1766686 -0.01326,2.176669 0.292922,-0.166945 c 0.161108,-0.09182 1.002211,-0.575261 1.86912,-1.074312 z M 20.669574,6.6305709 c 1.022798,-0.5872881 1.860076,-1.082222 1.860616,-1.0998534 0.0015,-0.050134 -3.671915,-2.1507519 -3.761123,-2.1507519 -0.08792,0 -3.763832,2.102305 -3.762457,2.1518045 0.0011,0.038526 3.723746,2.1860832 3.769878,2.1747879 0.0184,-0.0045 0.870287,-0.4886989 1.893086,-1.0759871 z M 7.1136985,4.0844261 C 8.1123771,3.5090464 8.9480948,3.0202172 8.9708495,2.998139 9.0126588,2.9575721 5.3286706,0.80688219 5.2235343,0.81047929 5.1368212,0.81344624 1.5155966,2.9136713 1.4990818,2.9705743 1.483486,3.0243106 5.1235402,5.1302684 5.2323428,5.130457 5.2684102,5.1305079 6.1150204,4.6598057 7.1136985,4.0844261 Z"
     id="path1466"
     inkscape:connector-curvature="0" />
</svg>
