<?xml version="1.0" encoding="UTF-8" standalone="no"?>
<svg
   xmlns:dc="http://purl.org/dc/elements/1.1/"
   xmlns:cc="http://creativecommons.org/ns#"
   xmlns:rdf="http://www.w3.org/1999/02/22-rdf-syntax-ns#"
   xmlns:svg="http://www.w3.org/2000/svg"
   xmlns="http://www.w3.org/2000/svg"
   xmlns:sodipodi="http://sodipodi.sourceforge.net/DTD/sodipodi-0.dtd"
   xmlns:inkscape="http://www.inkscape.org/namespaces/inkscape"
   role="img"
   viewBox="0 0 24 24"
   version="1.1"
   id="svg860"
   sodipodi:docname="linux.svg"
   inkscape:version="0.92.4 5da689c313, 2019-01-14">
  <metadata
     id="metadata866">
    <rdf:RDF>
      <cc:Work
         rdf:about="">
        <dc:format>image/svg+xml</dc:format>
        <dc:type
           rdf:resource="http://purl.org/dc/dcmitype/StillImage" />
      </cc:Work>
    </rdf:RDF>
  </metadata>
  <defs
     id="defs864" />
  <sodipodi:namedview
     pagecolor="#ffffff"
     bordercolor="#666666"
     borderopacity="1"
     objecttolerance="10"
     gridtolerance="10"
     guidetolerance="10"
     inkscape:pageopacity="0"
     inkscape:pageshadow="2"
     inkscape:window-width="1366"
     inkscape:window-height="712"
     id="namedview862"
     showgrid="false"
     inkscape:zoom="21.875"
     inkscape:cx="12.045714"
     inkscape:cy="12"
     inkscape:window-x="0"
     inkscape:window-y="28"
     inkscape:window-maximized="1"
     inkscape:current-layer="svg860" />
  <title
     id="title856">Linux icon</title>
  <path
     d="M12.503 0c-.155 0-.315.008-.479.021-4.227.333-3.106 4.807-3.17 6.298-.077 1.093-.3 1.954-1.051 3.021-.885 1.051-2.127 2.75-2.716 4.521-.278.832-.41 1.684-.287 2.489-.039.034-.076.068-.111.135-.26.268-.449.601-.662.839-.199.199-.485.267-.797.4-.313.136-.658.269-.864.681-.09.188-.136.393-.132.601 0 .199.027.401.055.536.058.399.116.729.039.97-.248.68-.279 1.146-.105 1.485.174.334.535.469.939.601.811.2 1.91.135 2.775.599.926.467 1.866.671 2.616.47.526-.115.97-.463 1.208-.945.587-.003 1.23-.269 2.26-.334.699-.058 1.574.267 2.578.199.025.135.063.199.114.334l.003.003c.391.778 1.113 1.132 1.884 1.071.771-.06 1.592-.536 2.257-1.306.631-.765 1.683-1.084 2.378-1.503.348-.199.629-.469.649-.853.023-.4-.199-.812-.714-1.377v-.097l-.003-.003c-.17-.2-.25-.535-.338-.926-.085-.401-.182-.786-.492-1.046h-.003c-.059-.054-.123-.067-.188-.135-.056-.038-.121-.062-.19-.064.431-1.278.264-2.55-.173-3.694-.533-1.41-1.465-2.638-2.175-3.483-.796-1.005-1.576-1.957-1.561-3.369.027-2.152.237-6.133-3.544-6.139zm.529 3.405h.013c.213 0 .396.062.584.198.191.135.33.332.439.533.105.259.158.459.166.724 0-.02.006-.04.006-.059v.104c-.002-.007-.004-.015-.004-.021l-.004-.024c-.002.243-.053.483-.15.706-.047.125-.119.24-.213.335-.029-.016-.057-.03-.088-.042-.105-.045-.199-.064-.285-.133-.071-.028-.145-.051-.219-.066.049-.059.145-.133.182-.198.053-.128.082-.264.088-.402v-.019c.002-.135-.018-.271-.061-.4-.045-.135-.101-.201-.183-.334-.084-.066-.167-.132-.267-.132h-.016c-.093 0-.176.03-.262.132-.095.094-.166.207-.205.334-.053.127-.084.264-.09.4v.019c.002.089.008.179.02.267-.193-.067-.438-.135-.607-.202-.01-.065-.016-.132-.018-.199v-.02c-.008-.264.043-.526.15-.769.082-.219.232-.406.43-.533.171-.129.379-.199.594-.199zm-2.962.059h.036c.142 0 .27.048.399.135.146.129.264.288.344.465.09.199.141.401.153.667v.004c.007.134.006.201-.002.266v.08c-.03.007-.056.018-.083.024-.152.055-.274.135-.393.2.012-.089.013-.179.003-.267v-.015c-.012-.133-.039-.199-.082-.333-.031-.102-.088-.193-.166-.267-.049-.045-.115-.068-.183-.064h-.021c-.071.006-.13.041-.186.132-.064.077-.105.171-.12.27-.027.108-.035.219-.023.331v.014c.012.135.037.201.081.334.045.134.097.2.165.268.011.009.021.018.034.024-.07.057-.117.07-.176.136-.037.028-.08.06-.131.068-.104-.125-.196-.26-.275-.402-.096-.21-.146-.438-.155-.667-.017-.226.011-.452.08-.668.055-.197.152-.379.283-.535.128-.133.26-.2.418-.2zm1.371 1.706c.331 0 .732.065 1.215.399.293.2.523.269 1.053.468h.003c.255.136.405.266.478.399v-.131c.073.147.078.318.016.47-.123.311-.516.644-1.064.843v.002c-.268.135-.501.333-.775.465-.276.135-.588.292-1.012.267-.152.008-.305-.015-.448-.067-.11-.06-.218-.126-.322-.198-.195-.135-.363-.332-.612-.465v-.005h-.005c-.4-.246-.616-.512-.686-.711-.069-.268-.005-.469.193-.6.224-.135.38-.271.483-.336.104-.074.143-.102.176-.131h.002v-.003c.169-.202.436-.469.839-.601.139-.036.294-.065.466-.065zm2.799 2.143c.359 1.417 1.197 3.475 1.736 4.473.286.534.855 1.659 1.102 3.024.156-.005.329.018.513.064.646-1.671-.546-3.467-1.089-3.966-.221-.201-.232-.335-.123-.335.589.534 1.365 1.572 1.646 2.757.129.535.159 1.104.021 1.67.067.028.135.061.205.067 1.032.534 1.413.938 1.23 1.537v-.043c-.061-.003-.12 0-.181 0h-.015c.151-.467-.182-.825-1.065-1.224-.915-.4-1.646-.336-1.771.465-.007.043-.012.066-.017.135-.068.023-.139.053-.209.064-.43.268-.662.669-.793 1.187-.13.533-.17 1.156-.205 1.869v.003c-.021.334-.171.838-.319 1.351-1.5 1.072-3.58 1.538-5.349.334-.111-.193-.246-.374-.402-.533-.074-.125-.168-.237-.275-.334.182 0 .338-.029.465-.067.145-.067.257-.188.314-.334.108-.267 0-.697-.345-1.163-.345-.467-.931-.995-1.788-1.521-.63-.399-.986-.87-1.15-1.396-.165-.534-.143-1.085-.015-1.645.245-1.07.873-2.11 1.274-2.763.107-.065.037.135-.408.974-.396.751-1.141 2.497-.122 3.854.038-.989.258-1.965.647-2.876.564-1.278 1.743-3.504 1.836-5.268.048.036.217.135.289.202.218.133.38.333.59.465.211.201.477.335.876.335.039.003.075.006.111.006.411 0 .729-.134.996-.268.29-.134.521-.334.74-.4h.005c.467-.135.836-.402 1.045-.7zm2.186 8.958c.037.601.343 1.245.882 1.377.588.134 1.434-.333 1.791-.765l.211-.009c.315-.008.577.01.847.267l.003.003c.208.199.305.531.391.876.085.401.154.78.409 1.066.486.527.645.906.636 1.14l.003-.006v.018l-.003-.012c-.015.262-.185.396-.498.595-.63.401-1.746.712-2.457 1.57-.618.737-1.371 1.139-2.036 1.191-.664.053-1.237-.2-1.574-.898l-.005-.003c-.21-.401-.12-1.025.056-1.69.176-.668.428-1.345.463-1.898.037-.714.076-1.335.195-1.814.12-.465.308-.797.641-.984l.045-.022zm-10.815.049h.01c.053 0 .105.005.157.014.376.055.706.333 1.023.752l.91 1.664.003.003c.243.533.754 1.064 1.189 1.638.434.598.77 1.131.729 1.57v.006c-.057.744-.479 1.148-1.125 1.294-.645.135-1.52.002-2.395-.464-.968-.536-2.118-.469-2.857-.602-.369-.066-.611-.201-.723-.401-.111-.199-.113-.601.123-1.23v-.003l.002-.003c.117-.334.03-.753-.027-1.119-.055-.401-.083-.709.043-.94.16-.334.396-.399.689-.533.295-.135.641-.202.916-.469h.002v-.003c.256-.268.445-.601.668-.838.19-.201.38-.336.663-.336zm7.159-9.074c-.435.201-.945.535-1.488.535-.542 0-.97-.267-1.279-.466-.155-.134-.28-.268-.374-.335-.164-.134-.144-.334-.074-.334.109.016.129.135.199.201.096.066.215.199.361.333.291.2.68.467 1.166.467.485 0 1.053-.267 1.398-.466.195-.135.445-.334.648-.467.156-.137.149-.268.279-.268.129.016.034.134-.147.333-.181.135-.461.335-.69.468v-.001zm-1.082-1.584V5.64c-.006-.019.013-.042.029-.05.074-.043.18-.027.26.004.063 0 .16.067.15.135-.006.049-.085.066-.135.066-.055 0-.092-.043-.141-.068-.052-.018-.146-.008-.163-.065zm-.551 0c-.02.058-.113.049-.166.066-.047.025-.086.068-.139.068-.051 0-.131-.019-.137-.068-.009-.066.088-.133.15-.133.081-.031.184-.047.259-.005.019.009.036.03.03.05v.021h.003z"
     id="path858" />
  <path
     style="fill:#ffd133;fill-opacity:1;stroke:none;stroke-width:0.04571429;stroke-opacity:1"
     d="m 16,23.504741 c -0.416381,-0.138454 -0.73748,-0.416227 -0.939969,-0.813137 -0.215211,-0.421849 -0.175302,-0.898651 0.183199,-2.188747 0.122271,-0.44 0.235135,-0.851428 0.250809,-0.914286 0.01567,-0.06286 0.05905,-0.491868 0.09639,-0.953358 0.07324,-0.905128 0.15811,-1.400914 0.294143,-1.718268 0.09484,-0.221261 0.390196,-0.574088 0.48057,-0.574088 0.03385,0 0.06934,0.08899 0.08659,0.217143 0.05731,0.425735 0.350911,0.87589 0.683432,1.047843 0.09672,0.05001 0.234631,0.06529 0.48623,0.05384 0.30313,-0.01379 0.403951,-0.04222 0.73634,-0.20768 0.211815,-0.105439 0.467405,-0.274477 0.567976,-0.375639 0.167712,-0.168698 0.203243,-0.184057 0.428982,-0.185436 0.348429,-0.0021 0.594175,0.08451 0.787192,0.277528 0.178523,0.178522 0.296065,0.472281 0.454647,1.136239 0.108817,0.4556 0.169266,0.575138 0.483454,0.956044 0.467819,0.567157 0.594954,1.005143 0.36408,1.254261 -0.15769,0.17015 -0.570236,0.424574 -1.051169,0.648272 -0.8325,0.387225 -1.193463,0.637092 -1.810586,1.253335 -0.587707,0.586867 -0.872678,0.793 -1.379061,0.997537 -0.345175,0.139428 -0.922541,0.181938 -1.203249,0.0886 z"
     id="path868"
     inkscape:connector-curvature="0" />
  <path
     style="fill:#ffd133;fill-opacity:1;stroke:none;stroke-width:0.04571429;stroke-opacity:1"
     d="M 7.3605934,23.223876 C 6.9275457,23.125389 6.6382224,23.024083 6.2811429,22.845907 5.559482,22.485811 5.1432786,22.378737 4.0182857,22.263758 2.9209825,22.151609 2.6116114,22.024131 2.5086333,21.6417 2.4523188,21.432564 2.4733101,21.278224 2.6375905,20.693533 l 0.1198242,-0.426467 -0.078403,-0.624962 c -0.1015152,-0.809192 -0.099739,-0.860265 0.039641,-1.139964 0.1361226,-0.273162 0.2343942,-0.341753 0.8631918,-0.602487 0.5773545,-0.239401 0.676942,-0.317646 1.0950732,-0.86038 0.4358476,-0.565731 0.5902902,-0.673797 0.9615996,-0.672848 0.5964886,0.0015 0.9439792,0.353739 1.668046,1.690718 0.5960421,1.100583 0.6501198,1.184907 1.2166528,1.897143 0.8095625,1.017768 1.0721179,1.494341 1.0721765,1.946142 9.14e-5,0.56953 -0.2738784,1.001486 -0.7788938,1.228123 -0.3513284,0.157667 -0.9961485,0.199886 -1.4559053,0.09532 z"
     id="path870"
     inkscape:connector-curvature="0" />
  <path
     style="fill:#ffd133;fill-opacity:1;stroke:none;stroke-width:0.04571429;stroke-opacity:1"
     d="M 10.998979,8.2797211 C 10.814255,8.2108499 10.641972,8.0996891 10.231583,7.7845792 10.091182,7.6767749 9.879992,7.5219034 9.7622713,7.4404203 9.5095241,7.2654753 9.2754286,6.9196529 9.2754286,6.7212218 c 0,-0.1928576 0.093917,-0.311318 0.4251477,-0.5362526 0.1554675,-0.105576 0.4094517,-0.3099027 0.5644097,-0.4540594 0.154957,-0.1441567 0.391699,-0.3194162 0.526092,-0.3894656 0.217156,-0.1131881 0.292683,-0.1273859 0.678636,-0.1275725 0.479322,-2.318e-4 0.623514,0.046585 1.188572,0.3859087 0.163428,0.098141 0.472,0.2443111 0.685714,0.324823 0.822825,0.3099801 1.022602,0.576398 0.742857,0.9906613 -0.160787,0.2381031 -0.405989,0.4313611 -0.759522,0.5986228 -0.154263,0.072984 -0.4527,0.2373906 -0.663193,0.3653483 -0.210493,0.1279578 -0.498493,0.2767547 -0.64,0.33066 -0.326892,0.1245257 -0.793249,0.1562899 -1.025163,0.069825 z M 11.728537,7.7260713 C 12.504832,7.4955366 13.664,6.7642294 13.664,6.5050081 c 0,-0.124475 -0.117648,-0.098453 -0.236687,0.052352 C 13.280195,6.7437372 12.645962,7.1902224 12.314645,7.3406515 11.339311,7.7834868 10.691853,7.681301 9.93843,6.9656231 9.7565092,6.7928161 9.5843403,6.6514286 9.5558325,6.6514286 c -0.028508,0 -0.051832,0.052254 -0.051832,0.11612 0,0.2281282 0.7077155,0.7748809 1.2086135,0.9337267 0.337192,0.1069313 0.708802,0.1160013 1.015923,0.024796 z M 10.987296,5.7580644 c 0.194131,-0.081113 0.1936,-0.1747769 -0.0011,-0.194364 -0.166662,-0.016766 -0.319156,0.08668 -0.279628,0.1896889 0.03565,0.092892 0.06829,0.093436 0.28073,0.00468 z m 1.095822,0.042759 c 0.19375,-0.074349 -0.01,-0.2623994 -0.25771,-0.237848 -0.161717,0.016029 -0.22355,0.1149374 -0.09664,0.1545846 0.04609,0.014399 0.114659,0.044057 0.152373,0.065907 0.08579,0.049703 0.111846,0.051942 0.201975,0.017356 z"
     id="path872"
     inkscape:connector-curvature="0" />
</svg>
