<?xml version="1.0" encoding="UTF-8" standalone="no"?>
<svg
   xmlns:dc="http://purl.org/dc/elements/1.1/"
   xmlns:cc="http://creativecommons.org/ns#"
   xmlns:rdf="http://www.w3.org/1999/02/22-rdf-syntax-ns#"
   xmlns:svg="http://www.w3.org/2000/svg"
   xmlns="http://www.w3.org/2000/svg"
   xmlns:sodipodi="http://sodipodi.sourceforge.net/DTD/sodipodi-0.dtd"
   xmlns:inkscape="http://www.inkscape.org/namespaces/inkscape"
   role="img"
   viewBox="0 0 24 24"
   version="1.1"
   id="svg1513"
   sodipodi:docname="php.svg"
   inkscape:version="0.92.4 5da689c313, 2019-01-14">
  <metadata
     id="metadata1519">
    <rdf:RDF>
      <cc:Work
         rdf:about="">
        <dc:format>image/svg+xml</dc:format>
        <dc:type
           rdf:resource="http://purl.org/dc/dcmitype/StillImage" />
      </cc:Work>
    </rdf:RDF>
  </metadata>
  <defs
     id="defs1517" />
  <sodipodi:namedview
     pagecolor="#ffffff"
     bordercolor="#666666"
     borderopacity="1"
     objecttolerance="10"
     gridtolerance="10"
     guidetolerance="10"
     inkscape:pageopacity="0"
     inkscape:pageshadow="2"
     inkscape:window-width="1366"
     inkscape:window-height="712"
     id="namedview1515"
     showgrid="false"
     inkscape:zoom="9.8333333"
     inkscape:cx="12"
     inkscape:cy="12"
     inkscape:window-x="0"
     inkscape:window-y="28"
     inkscape:window-maximized="1"
     inkscape:current-layer="svg1513" />
  <title
     id="title1509">PHP icon</title>
  <path
     d="M7.01 10.207h-.944l-.515 2.648h.838c.556 0 .97-.105 1.242-.314.272-.21.455-.559.55-1.049.092-.47.05-.802-.124-.995-.175-.193-.523-.29-1.047-.29zM12 5.688C5.373 5.688 0 8.514 0 12s5.373 6.313 12 6.313S24 15.486 24 12c0-3.486-5.373-6.312-12-6.312zm-3.26 7.451c-.261.25-.575.438-.917.551-.336.108-.765.164-1.285.164H5.357l-.327 1.681H3.652l1.23-6.326h2.65c.797 0 1.378.209 1.744.628.366.418.476 1.002.33 1.752a2.836 2.836 0 0 1-.305.847c-.143.255-.33.49-.561.703zm4.024.715l.543-2.799c.063-.318.039-.536-.068-.651-.107-.116-.336-.174-.687-.174H11.46l-.704 3.625H9.388l1.23-6.327h1.367l-.327 1.682h1.218c.767 0 1.295.134 1.586.401s.378.7.263 1.299l-.572 2.944h-1.389zm7.597-2.265a2.782 2.782 0 0 1-.305.847c-.143.255-.33.49-.561.703a2.44 2.44 0 0 1-.917.551c-.336.108-.765.164-1.286.164h-1.18l-.327 1.682h-1.378l1.23-6.326h2.649c.797 0 1.378.209 1.744.628.366.417.477 1.001.331 1.751zM17.766 10.207h-.943l-.516 2.648h.838c.557 0 .971-.105 1.242-.314.272-.21.455-.559.551-1.049.092-.47.049-.802-.125-.995s-.524-.29-1.047-.29z"
     id="path1511" />
  <path
     style="fill:#8892bf;fill-opacity:0.89285713;stroke:none;stroke-width:0.10169491;stroke-opacity:1"
     d="M 10.31885,18.203226 C 6.4760275,17.884866 3.335492,16.72304 1.5227466,14.949153 0.36503154,13.816254 -0.08233975,12.71303 0.11352538,11.473995 0.88444892,6.597162 11.774627,4.0489935 19.179487,7.0127933 c 2.081733,0.8332146 3.749385,2.1244159 4.349921,3.3679817 1.272909,2.635889 -0.637254,5.304371 -4.868391,6.801103 -2.388667,0.844971 -5.650576,1.244334 -8.342167,1.021348 z m -5.1311156,-3.22865 c 0.2251583,-1.121386 0.091408,-1.006728 1.2519234,-1.073221 1.3509566,-0.0774 1.7246823,-0.197852 2.308599,-0.744037 0.6299648,-0.589259 0.925472,-1.270896 0.925472,-2.134759 0,-0.805326 -0.2490485,-1.2657547 -0.8619429,-1.5935169 C 8.4221571,9.2206774 8.2536955,9.2033898 6.6128774,9.2033898 H 4.8359243 L 4.254661,12.152542 c -0.3196949,1.622034 -0.584049,3.052119 -0.5874538,3.177966 -0.00584,0.215869 0.033674,0.228814 0.6984642,0.228814 h 0.7046544 z m 10.7932296,-0.20339 0.13768,-0.788135 1.077843,-0.06683 c 1.326631,-0.08225 1.961533,-0.325801 2.52852,-0.969933 C 20.44684,12.126245 20.679,10.753127 20.211864,10.066762 19.67972,9.2848809 19.251994,9.1583311 17.130082,9.1549685 l -1.530933,-0.00243 -0.59489,3.0762715 c -0.32719,1.691949 -0.615623,3.133474 -0.640964,3.203389 -0.03425,0.09449 0.149758,0.127119 0.716959,0.127119 h 0.763031 z m -5.162886,-1.016949 c 0.02867,-0.09788 0.171815,-0.818644 0.318105,-1.601695 0.146291,-0.78305 0.29105,-1.526695 0.321688,-1.652542 0.05146,-0.211376 0.112433,-0.228814 0.800127,-0.228814 0.541155,0 0.788059,0.04364 0.904229,0.159807 0.198917,0.198916 0.212845,0.01925 -0.145278,1.874092 -0.167386,0.866949 -0.304505,1.587712 -0.30471,1.601695 -2.04e-4,0.01398 0.334683,0.02542 0.744196,0.02542 h 0.74457 L 14.53697,12.127119 C 14.853821,10.42473 14.863987,10.300722 14.715665,9.9474323 14.480943,9.3883463 14.084236,9.2278638 12.802328,9.1734165 l -1.079029,-0.04583 0.138231,-0.72481 c 0.07603,-0.3986456 0.138284,-0.7591321 0.13835,-0.8010813 6.6e-5,-0.041949 -0.319347,-0.076271 -0.709807,-0.076271 -0.652738,0 -0.714191,0.018432 -0.762865,0.2288136 -0.09345,0.4039077 -1.1712758,6.0156822 -1.1712758,6.0983112 0,0.04381 0.3172552,0.07965 0.7050108,0.07965 0.583787,0 0.713974,-0.0306 0.757135,-0.177965 z"
     id="path2666"
     inkscape:connector-curvature="0" />
  <path
     style="fill:#8892bf;fill-opacity:0.89285715;stroke:none;stroke-width:0.10169491;stroke-opacity:1"
     d="m 16.378911,12.750354 c 0.0033,-0.04913 0.110077,-0.615608 0.237246,-1.258829 l 0.231215,-1.169491 0.649448,-0.03086 c 0.751248,-0.03569 1.036117,0.019 1.258781,0.241661 0.369342,0.369343 0.04747,1.676225 -0.501416,2.035868 -0.29106,0.19071 -1.886315,0.345233 -1.875274,0.181646 z"
     id="path2668"
     inkscape:connector-curvature="0" />
  <path
     style="fill:#8892bf;fill-opacity:0.89285715;stroke:none;stroke-width:0.10169491;stroke-opacity:1"
     d="m 5.6395947,12.598119 c 0.074032,-0.314761 0.4621002,-2.235603 0.4621002,-2.28728 0,-0.101445 1.5039198,-0.02187 1.7288136,0.09148 0.2182391,0.109991 0.2581531,0.206974 0.2818931,0.684942 0.03181,0.640451 -0.1767359,1.139862 -0.6079899,1.45597 -0.2025763,0.148489 -0.4926122,0.214341 -1.0985141,0.249416 l -0.823265,0.04766 z"
     id="path2670"
     inkscape:connector-curvature="0" />
</svg>
