<?xml version="1.0" encoding="UTF-8" standalone="no"?>
<!-- Created with Inkscape (http://www.inkscape.org/) -->

<svg
   xmlns:dc="http://purl.org/dc/elements/1.1/"
   xmlns:cc="http://creativecommons.org/ns#"
   xmlns:rdf="http://www.w3.org/1999/02/22-rdf-syntax-ns#"
   xmlns:svg="http://www.w3.org/2000/svg"
   xmlns="http://www.w3.org/2000/svg"
   xmlns:sodipodi="http://sodipodi.sourceforge.net/DTD/sodipodi-0.dtd"
   xmlns:inkscape="http://www.inkscape.org/namespaces/inkscape"
   width="210mm"
   height="297mm"
   viewBox="0 0 210 297"
   version="1.1"
   id="svg8"
   inkscape:version="0.92.4 5da689c313, 2019-01-14"
   sodipodi:docname="logo.svg">
  <defs
     id="defs2" />
  <sodipodi:namedview
     id="base"
     pagecolor="#ffffff"
     bordercolor="#666666"
     borderopacity="1.0"
     inkscape:pageopacity="0.0"
     inkscape:pageshadow="2"
     inkscape:zoom="0.35"
     inkscape:cx="895.70207"
     inkscape:cy="396.75564"
     inkscape:document-units="mm"
     inkscape:current-layer="layer1"
     showgrid="false"
     inkscape:window-width="1366"
     inkscape:window-height="712"
     inkscape:window-x="0"
     inkscape:window-y="28"
     inkscape:window-maximized="1" />
  <metadata
     id="metadata5">
    <rdf:RDF>
      <cc:Work
         rdf:about="">
        <dc:format>image/svg+xml</dc:format>
        <dc:type
           rdf:resource="http://purl.org/dc/dcmitype/StillImage" />
        <dc:title></dc:title>
      </cc:Work>
    </rdf:RDF>
  </metadata>
  <g
     inkscape:label="Layer 1"
     inkscape:groupmode="layer"
     id="layer1">
    <path
       style="fill:#000000;stroke-width:0.35277778"
       d="m 54.561434,170.2438 c 0,-0.44799 -0.215844,-1.1097 -0.479655,-1.47048 -0.464933,-0.63584 -0.517264,-0.63272 -1.705119,0.10141 l -1.225466,0.75738 -0.982634,-1.02565 -0.982634,-1.02565 0.780351,-1.0959 c 0.627659,-0.88146 0.696436,-1.19702 0.351504,-1.61264 -0.235867,-0.2842 -0.7666,-0.51916 -1.179403,-0.52213 -1.250876,-0.009 -1.693192,-0.51119 -1.570475,-1.78303 0.09941,-1.03031 0.270218,-1.21688 1.306492,-1.42708 1.621038,-0.32881 1.911353,-0.93802 1.034101,-2.17001 l -0.72257,-1.01475 0.982634,-1.02565 0.982634,-1.02565 1.087759,0.65395 c 1.389352,0.83525 1.891838,0.63393 2.174183,-0.87111 0.210817,-1.12375 0.320936,-1.20905 1.560926,-1.20905 1.370781,0 1.762372,0.4008 1.762372,1.80382 0,1.03228 0.897509,1.17535 2.225332,0.35471 l 1.184907,-0.73232 0.924765,0.96525 0.924761,0.96524 -0.726179,1.14692 c -0.815728,1.28836 -0.664401,2.19916 0.365379,2.19916 1.401339,0 1.803813,0.39193 1.803813,1.75654 0,1.27687 -0.05462,1.33702 -1.411112,1.55393 -1.616226,0.25845 -1.788544,0.81305 -0.719215,2.31479 l 0.6919,0.97168 -0.999222,0.95732 -0.999226,0.95732 -1.149847,-0.69927 c -1.280961,-0.77899 -2.116056,-0.65647 -2.116056,0.31047 0,1.36295 -0.402463,1.755 -1.801633,1.755 -1.199423,0 -1.373367,-0.10316 -1.373367,-0.81452 z m 3.252082,-3.09797 c 0.884258,-0.36627 1.20718,-0.33951 2.072682,0.17176 1.130529,0.66781 1.303419,0.41433 0.499868,-0.7329 -0.818984,-1.16927 0.104433,-3.10126 1.656955,-3.46672 l 1.161468,-0.2734 -1.250533,-0.34739 c -1.688899,-0.46915 -2.313104,-2.18234 -1.30125,-3.57139 0.76339,-1.04797 0.309242,-1.20076 -1.00652,-0.33864 -0.668349,0.43792 -0.987761,0.48149 -1.292867,0.17639 -0.222871,-0.22287 -0.673302,-0.40522 -1.000958,-0.40522 -0.402431,0 -0.671498,-0.40383 -0.829215,-1.24453 -0.25599,-1.36455 -0.903379,-1.34333 -0.903379,0.0296 0,0.63579 -0.299015,0.98649 -1.146528,1.3447 -1.028157,0.43456 -1.264899,0.41348 -2.293055,-0.20415 -1.307374,-0.78536 -1.425798,-0.61111 -0.493036,0.72546 0.581353,0.83303 0.600714,1.06297 0.175377,2.08293 -0.345602,0.82877 -0.705972,1.14653 -1.300251,1.14653 -1.332844,0 -1.424114,0.48129 -0.171263,0.90312 1.516934,0.51075 2.087873,2.15802 1.211527,3.4955 -0.64734,0.98796 -0.258974,1.15518 0.942834,0.40594 1.121604,-0.69923 3.074395,0.13366 3.074395,1.31127 0,1.29094 0.497734,1.46314 0.837734,0.28983 0.200346,-0.69137 0.67593,-1.217 1.356015,-1.4987 z m -2.697717,-3.34466 c -0.761054,-0.76105 -0.694676,-1.42401 0.205733,-2.05468 0.967722,-0.67782 2.062124,-0.16652 2.062124,0.96341 0,1.50496 -1.251811,2.10732 -2.267857,1.09127 z m 44.253814,4.17034 c 0.0028,-1.50371 0.137767,-2.94276 0.299547,-3.19788 0.190084,-0.29975 0.84341,-0.42456 1.84668,-0.35278 l 1.55254,0.11108 0.0457,3.175 c 0.0284,1.97169 -0.0385,2.6402 -0.17639,1.76389 -0.20919,-1.3293 -0.29877,-1.41746 -1.54499,-1.5206 l -1.32291,-0.10949 v 1.4324 c 0,0.78783 -0.158753,1.43241 -0.352781,1.43241 -0.205303,0 -0.35052,-1.14293 -0.347376,-2.73403 z m 3.522377,-1.67569 c 0,-1.20533 -0.0336,-1.23472 -1.41111,-1.23472 -1.37751,0 -1.41111,0.0294 -1.41111,1.23472 0,1.20532 0.0336,1.23472 1.41111,1.23472 1.37751,0 1.41111,-0.0294 1.41111,-1.23472 z m 1.41111,1.23472 c 0,-1.74625 0.14771,-3.175 0.32824,-3.175 0.18054,0 0.37897,0.32252 0.44097,0.7167 0.0627,0.39852 0.77836,1.11218 1.61204,1.6075 l 1.4993,0.89079 v -1.60749 c 0,-0.88413 0.15875,-1.6075 0.35278,-1.6075 0.20905,0 0.35278,1.29352 0.35278,3.175 0,3.07646 -0.55069,4.45208 -0.77245,1.92958 -0.0915,-1.04065 -0.35602,-1.39197 -1.6088,-2.13666 l -1.4993,-0.89124 v 2.13666 c 0,1.18925 -0.15643,2.13666 -0.35278,2.13666 -0.20905,0 -0.35278,-1.29352 -0.35278,-3.175 z m 5.80032,2.71959 c -0.10396,-0.27091 -0.14187,-1.66833 -0.0842,-3.10538 l 0.10476,-2.61282 2.02848,-0.1058 c 1.24859,-0.0651 2.02847,0.0366 2.02847,0.26458 0,0.21412 -0.82512,0.37039 -1.95573,0.37039 h -1.95574 l 0.10365,2.55763 0.10365,2.55764 1.49931,0.10848 c 1.4983,0.10841 1.49931,0.10765 1.49931,-1.12309 0,-1.06925 -0.12787,-1.25284 -0.97014,-1.39289 -0.72496,-0.12054 -0.65809,-0.14875 0.26458,-0.11162 1.19705,0.0482 1.23473,0.0927 1.23473,1.46079 v 1.41111 l -1.85603,0.10677 c -1.33912,0.077 -1.90868,-0.0304 -2.04505,-0.38579 z m 5.21026,-2.6314 0.10193,-3.0868 2.02847,-0.1058 c 1.24859,-0.0651 2.02847,0.0366 2.02847,0.26458 0,0.2143 -0.82753,0.37039 -1.96371,0.37039 -1.9341,0 -1.96202,0.0146 -1.85208,0.97013 0.0963,0.83704 0.30523,0.99773 1.52274,1.17125 l 1.41111,0.2011 -1.41111,0.15168 c -1.34863,0.14495 -1.41112,0.20635 -1.41112,1.38639 v 1.23472 l 1.94028,0.20708 1.94028,0.20709 -2.21859,0.0575 -2.2186,0.0575 z m 5.28293,-0.17638 0.0657,-3.2632 0.19886,2.99861 0.19886,2.99861 1.94028,0.20708 1.94028,0.20709 -2.20486,0.0575 -2.20486,0.0575 z m 5.13775,3.05922 c -0.43938,-0.4424 -0.30579,-5.25816 0.15875,-5.7227 0.23283,-0.23283 1.07421,-0.42333 1.86972,-0.42333 0.79551,0 1.63689,0.1905 1.86972,0.42333 0.43824,0.43824 0.59154,4.3723 0.2092,5.36865 -0.15698,0.40909 -0.65129,0.54466 -1.85208,0.50796 l -1.63795,-0.0501 1.41111,-0.21453 1.41111,-0.21452 0.10365,-2.55764 0.10365,-2.55763 h -1.58869 -1.58869 l -0.10246,2.85344 c -0.0564,1.56939 -0.22152,2.73356 -0.36704,2.58703 z m 7.49653,-2.5477 c 0,-1.66981 0.16643,-2.9181 0.42333,-3.175 0.51082,-0.51081 2.75167,-0.56827 2.75167,-0.0705 0,0.19403 -0.55563,0.35278 -1.23473,0.35278 -1.17592,0 -1.23472,0.0588 -1.23472,1.23472 0,1.20532 0.0336,1.23472 1.41111,1.23472 h 1.41111 v -1.41111 c 0,-0.77611 0.15875,-1.41111 0.35278,-1.41111 0.20752,0 0.35278,1.23472 0.35278,2.99861 0,1.76389 -0.14526,2.99861 -0.35278,2.99861 -0.19403,0 -0.35278,-0.64458 -0.35278,-1.43241 v -1.4324 l -1.32291,0.10949 c -1.25108,0.10354 -1.32886,0.18133 -1.43241,1.4324 -0.20045,2.422 -0.77245,1.36402 -0.77245,-1.42875 z m 5.36347,-0.33514 -0.0718,-3.26319 h 1.69334 c 1.91347,0 2.54,0.43509 2.54,1.76389 0,1.14271 -0.59435,1.76389 -1.6877,1.76389 -0.8401,0 -0.83979,0.001 0.27658,1.41111 0.66594,0.8408 0.92743,1.40718 0.64701,1.4014 -0.55133,-0.0114 -2.23451,-2.16904 -2.23451,-2.86442 0,-0.28058 0.47248,-0.52281 1.14653,-0.5878 1.00814,-0.0972 1.14653,-0.23559 1.14653,-1.14653 0,-0.99126 -0.0679,-1.03598 -1.57323,-1.03598 h -1.57324 l -0.11884,2.91041 -0.11886,2.91042 z m 5.29432,0 0.10193,-3.0868 2.02847,-0.1058 c 1.24859,-0.0651 2.02847,0.0366 2.02847,0.26458 0,0.21412 -0.82512,0.37039 -1.95573,0.37039 h -1.95573 l 0.10365,2.55763 0.10365,2.55764 1.94027,0.20708 1.94028,0.20709 -2.21859,0.0575 -2.2186,0.0575 z m 5.83457,2.72304 c 0.71765,-0.28846 0.79375,-0.55688 0.79375,-2.79986 0,-2.24563 -0.0669,-2.48081 -0.70556,-2.48081 -0.38805,0 -0.70555,-0.15875 -0.70555,-0.35278 0,-0.19403 0.79375,-0.35278 1.76388,-0.35278 0.97014,0 1.76389,0.15875 1.76389,0.35278 0,0.19403 -0.40382,0.35278 -0.8974,0.35278 -0.88793,0 -0.8963,0.0268 -0.79375,2.54284 0.0967,2.37294 0.16258,2.55917 0.9856,2.78706 0.61353,0.16989 0.29145,0.24811 -1.05834,0.25701 -1.49825,0.01 -1.75945,-0.0599 -1.14652,-0.30624 z m 3.61597,-2.81123 c 0,-1.88148 0.14372,-3.175 0.35278,-3.175 0.20734,0 0.35277,1.22858 0.35277,2.98018 v 2.98017 l 1.85209,0.12957 1.85208,0.12957 -2.20486,0.0653 -2.20486,0.0653 z m 5.29167,0 c 0,-1.88148 0.14372,-3.175 0.35277,-3.175 0.20735,0 0.35278,1.22858 0.35278,2.98018 v 2.98017 l 1.85208,0.12957 1.85209,0.12957 -2.20486,0.0653 -2.20486,0.0653 z m 5.29166,0.55802 c 0,-1.43934 0.0964,-2.86809 0.21414,-3.175 0.26011,-0.67785 2.95187,-0.77868 3.59586,-0.13469 0.50434,0.50434 0.58838,5.92667 0.0919,5.92667 -0.18232,0 -0.38076,-0.59531 -0.44098,-1.32292 -0.10354,-1.25107 -0.18133,-1.32886 -1.43241,-1.4324 l -1.32291,-0.10949 v 1.4324 c 0,0.78783 -0.15875,1.43241 -0.35278,1.43241 -0.20348,0 -0.35278,-1.10751 -0.35278,-2.61698 z m 3.52778,-1.79274 c 0,-1.20533 -0.0336,-1.23472 -1.41111,-1.23472 -1.37751,0 -1.41111,0.0294 -1.41111,1.23472 0,1.20532 0.0336,1.23472 1.41111,1.23472 1.37751,0 1.41111,-0.0294 1.41111,-1.23472 z m 2.20971,4.15657 c 0.53625,-0.0811 1.33,-0.0789 1.76389,0.005 0.4339,0.0837 -0.005,0.15008 -0.97499,0.14743 -0.97014,-0.003 -1.32514,-0.0712 -0.7889,-0.15224 z m 2.72918,-0.77875 c 0,-0.84382 -0.26744,-1.1814 -1.46725,-1.85209 -1.82549,-1.02043 -2.37931,-1.82205 -1.8462,-2.67226 0.43769,-0.69802 3.66623,-1.10337 3.66623,-0.4603 0,0.20583 -0.70938,0.37211 -1.5875,0.37211 -1.31281,0 -1.5875,0.1136 -1.5875,0.65653 0,0.41816 0.57638,0.9623 1.5875,1.4987 1.44973,0.76908 1.5875,0.95702 1.5875,2.16569 0,0.72794 -0.0794,1.32352 -0.17639,1.32352 -0.097,0 -0.17639,-0.46435 -0.17639,-1.0319 z m -80.204315,-12.90581 1.997527,-3.0016 1.885333,2.81601 c 1.036937,1.54881 1.885336,2.89953 1.885336,3.0016 0,0.10208 -1.747287,0.18559 -3.882859,0.18559 h -3.88286 z m 15.820305,2.56063 c -0.086,-0.24254 -2.07994,-5.99722 -4.43106,-12.7882 l -4.274768,-12.34722 2.049888,-6.2618 c 1.12744,-3.444 2.22873,-6.26181 2.44732,-6.26181 0.21858,0 3.30199,8.37406 6.852,18.60903 3.55003,10.23496 6.52843,18.80746 6.61868,19.05 0.12606,0.33873 -0.91055,0.44097 -4.47083,0.44097 -3.3894,0 -4.67693,-0.1185 -4.79123,-0.44097 z m 27.00651,-11.10588 c -4.14305,-6.35077 -7.82264,-12.18484 -8.17686,-12.96459 -0.4097,-0.90188 -0.64565,-2.25207 -0.64847,-3.71078 -0.004,-1.90318 0.174,-2.60419 1.04506,-4.12297 1.47574,-2.57312 4.00308,-4.36571 6.89357,-4.88948 l 1.39892,-0.25349 -0.88194,0.95722 c -0.76973,0.83543 -0.88195,1.27906 -0.88195,3.48644 0,3.59047 0.75097,4.98719 10.70333,19.90718 4.68769,7.02749 8.52306,12.85828 8.52306,12.95729 0,0.099 -2.34942,0.18003 -5.22095,0.18003 h -5.22094 z m 20.09139,11.36126 c 0,-0.10207 0.8484,-1.45279 1.88533,-3.0016 l 1.88534,-2.81601 1.99752,3.0016 1.99753,3.0016 h -3.88286 c -2.13557,0 -3.88286,-0.0835 -3.88286,-0.18559 z m 13.34551,-12.69589 -4.46977,-12.8788 2.031,-6.08166 c 1.2772,-3.82447 2.20588,-6.08167 2.50219,-6.08167 0.30554,0 2.78663,6.66621 7.05736,18.9618 l 6.58616,18.96181 -4.61859,-0.001 -4.61858,-0.001 z m -41.81608,11.48214 c -6.30769,-3.19602 -7.26056,-11.69942 -1.92687,-17.19541 0.77984,-0.80359 1.7446,-1.6359 2.14389,-1.8496 0.69288,-0.37081 0.71644,-0.31889 0.5167,1.1384 -0.28982,2.11446 0.60392,5.4199 2.52111,9.32417 1.80308,3.67186 4.06915,6.24715 6.51852,7.408 l 1.5875,0.75237 -1.41112,0.60609 c -0.83634,0.35921 -2.70434,0.67102 -4.58611,0.76551 -3.01516,0.15139 -3.28518,0.1036 -5.36362,-0.94953 z m -71.365551,-7.03567 v -1.37944 l -5.456082,-0.11986 c -6.223317,-0.13671 -6.394892,-0.20937 -6.758516,-2.8623 -0.22259,-1.62397 -0.204372,-1.66728 0.701369,-1.66728 0.849693,0 0.929896,0.12171 0.929896,1.41111 v 1.41111 h 11.818055 11.818056 v -1.41111 c 0,-1.17592 0.117592,-1.41111 0.705556,-1.41111 0.595728,0 0.704716,0.23338 0.700154,1.49931 -0.0028,0.82461 -0.125264,1.68781 -0.271762,1.9182 -0.559523,0.87996 -2.413755,1.1686 -7.506914,1.1686 H 56.6781 v 1.41111 c 0,1.17593 -0.117591,1.41111 -0.705555,1.41111 -0.585266,0 -0.705556,-0.23518 -0.705556,-1.37945 z M 33.747544,142.8361 c -0.661892,-0.6619 -0.705555,-1.17593 -0.705555,-8.30632 0,-7.59957 1.35e-4,-7.60089 0.865909,-8.46666 l 0.865909,-0.86591 h 8.227818 c 6.875858,0 8.35665,0.0902 9.011868,0.54917 0.771214,0.54018 0.784052,0.6808 0.784052,8.58838 0,7.34023 -0.05609,8.08997 -0.645139,8.62305 -0.562854,0.50937 -1.732742,0.58384 -9.172223,0.58384 -8.056713,0 -8.566003,-0.0389 -9.232639,-0.70555 z m 17.557574,-8.37848 -0.09507,-7.67291 -7.893081,-0.0951 c -5.525451,-0.0666 -8.038679,0.0258 -8.378472,0.30778 -0.382706,0.31761 -0.485392,1.91121 -0.485392,7.53279 0,3.92147 0.105833,7.23579 0.235185,7.36513 0.129352,0.12936 3.942448,0.23519 8.473547,0.23519 h 8.23836 z m -13.644429,2.82105 -1.554912,-2.72771 1.547021,-2.91298 c 0.850861,-1.60215 1.650195,-2.91299 1.776299,-2.91299 0.126103,0 0.410213,0.21801 0.631357,0.48447 0.311874,0.37579 0.123703,0.97697 -0.838749,2.67972 -0.682455,1.20739 -1.240827,2.35265 -1.240827,2.54501 0,0.19237 0.578379,1.384 1.285286,2.64807 1.041217,1.86187 1.191946,2.35741 0.79375,2.60956 -0.270345,0.17119 -0.570911,0.312 -0.667925,0.31291 -0.09701,0.001 -0.876099,-1.22582 -1.7313,-2.72606 z m 8.522272,2.48181 c -0.670334,-0.24046 -0.551289,-0.67438 0.832983,-3.03628 l 1.273954,-2.17368 -1.362149,-2.56596 c -1.152609,-2.17124 -1.281201,-2.61706 -0.835931,-2.89808 0.661793,-0.41768 0.706038,-0.3684 2.461602,2.74192 l 1.452989,2.57425 -1.446717,2.6208 c -1.550363,2.80857 -1.699267,2.98005 -2.376731,2.73703 z m -4.544608,-0.71674 c 0.09748,-0.33955 0.456408,-2.7208 0.797611,-5.29167 0.536612,-4.04323 0.706406,-4.67431 1.257641,-4.67431 0.783213,0 0.789213,0.31877 0.09774,5.1928 -0.75409,5.31538 -0.776505,5.39054 -1.607625,5.39054 -0.520533,0 -0.673042,-0.17265 -0.545364,-0.61736 z M 59.8531,142.8361 c -0.661892,-0.6619 -0.705555,-1.17593 -0.705555,-8.30632 0,-7.59957 1.34e-4,-7.60089 0.86591,-8.46666 l 0.865908,-0.86591 h 8.227818 c 6.875858,0 8.35665,0.0902 9.011867,0.54917 0.771215,0.54018 0.784053,0.6808 0.784053,8.58838 0,7.34023 -0.05609,8.08997 -0.645139,8.62305 -0.562854,0.50937 -1.732742,0.58384 -9.172223,0.58384 -8.056714,0 -8.566002,-0.0389 -9.232639,-0.70555 z m 17.462501,-8.46667 v -7.58472 l -7.893082,-0.0951 c -5.525449,-0.0666 -8.038677,0.0258 -8.378473,0.30778 -0.382704,0.31761 -0.48539,1.91121 -0.48539,7.53279 0,3.92147 0.108687,7.23864 0.241526,7.37148 0.132842,0.13284 3.903154,0.19898 8.378472,0.14699 l 8.136947,-0.0945 z m -13.032776,5.21317 c -0.302041,-0.43122 -0.549169,-1.36232 -0.549169,-2.06909 0,-0.77491 -0.296746,-1.66229 -0.747515,-2.23535 l -0.747518,-0.95032 0.747518,-0.79569 c 0.515701,-0.54894 0.747515,-1.25359 0.747515,-2.27226 0,-1.87646 0.926528,-2.88768 2.645833,-2.88768 0.986074,0 1.234723,0.13758 1.234723,0.6832 0,0.51294 -0.285743,0.71076 -1.146528,0.79375 -1.087477,0.10485 -1.152335,0.19228 -1.259286,1.69741 -0.06202,0.87278 -0.36443,1.86496 -0.672035,2.20486 -0.510522,0.56412 -0.510522,0.67188 0,1.236 0.307605,0.3399 0.61002,1.33208 0.672035,2.20486 0.106951,1.50513 0.171809,1.59256 1.259286,1.69741 0.860785,0.083 1.146528,0.28081 1.146528,0.79375 0,1.04807 -2.581385,0.96993 -3.331387,-0.10085 z m 6.506387,0.0785 c 0,-0.54877 0.235186,-0.70556 1.058333,-0.70556 0.989147,0 1.058333,-0.0871 1.058333,-1.33261 0,-0.73295 0.262555,-1.70747 0.583456,-2.16562 0.500944,-0.7152 0.51574,-0.93833 0.104609,-1.5778 -0.263363,-0.40964 -0.565608,-1.45918 -0.67165,-2.3323 -0.171609,-1.413 -0.299445,-1.59977 -1.162942,-1.69913 -0.68536,-0.0789 -0.970139,-0.31186 -0.970139,-0.79375 0,-0.53836 0.248697,-0.68212 1.180045,-0.68212 1.537589,0 2.345616,0.91712 2.355578,2.67361 0.0047,0.82694 0.285313,1.73806 0.69771,2.26528 0.874656,1.11818 0.874656,1.5015 0,2.29305 -0.495882,0.44877 -0.705556,1.08655 -0.705556,2.14615 0,1.84121 -0.686819,2.61635 -2.318254,2.61635 -0.974337,0 -1.209523,-0.13719 -1.209523,-0.70555 z m 73.583988,1.54615 -2.08686,-2.25171 h 4.34639 4.3464 l -0.65996,0.79375 c -1.29327,1.55546 -3.47999,3.79168 -3.66799,3.75102 -0.10512,-0.0228 -1.13021,-1.05461 -2.27798,-2.29306 z m -5.02139,-6.65134 c 1.14912,-2.99456 1.22058,-8.8942 0.13406,-11.06783 l -0.58982,-1.17997 2.1945,0.24699 c 2.96311,0.33348 5.2807,1.38111 6.81685,3.08145 1.21834,1.34855 1.26998,1.5085 1.12668,3.48953 -0.12835,1.7745 -0.32241,2.2539 -1.33544,3.29908 -1.32285,1.36484 -3.38314,2.16393 -6.5011,2.52147 -1.91018,0.21904 -2.06698,0.18585 -1.84573,-0.39072 z"
       id="path3797"
       inkscape:connector-curvature="0" />
  </g>
</svg>
